<?xml version="1.0" encoding="UTF-8"?>
<!DOCTYPE svg PUBLIC "-//W3C//DTD SVG 1.1//EN" "http://www.w3.org/Graphics/SVG/1.1/DTD/svg11.dtd">
<!-- Creator: CorelDRAW -->
<svg xmlns="http://www.w3.org/2000/svg" xml:space="preserve" width="210mm" height="297mm" style="shape-rendering:geometricPrecision; text-rendering:geometricPrecision; image-rendering:optimizeQuality; fill-rule:evenodd; clip-rule:evenodd"
viewBox="0 0 210 297"
 xmlns:xlink="http://www.w3.org/1999/xlink">
 <defs>
  <style type="text/css">
   <![CDATA[
    .fil0 {fill:black}
   ]]>
  </style>
 </defs>
 <g id="Warstwa_x0020_1">
  <metadata id="CorelCorpID_0Corel-Layer"/>
  <g id="_43447960">
   <polygon id="_43319768" class="fil0" points="102.03,91.5282 102.199,91.611 102.453,91.6938 102.622,91.7766 102.876,91.8595 103.046,91.9422 103.13,92.0251 103.215,92.1079 103.384,92.1907 103.469,92.3563 103.554,92.4392 103.638,92.5219 103.723,92.6048 103.808,92.7704 103.893,92.8532 103.977,93.1845 103.977,93.5157 103.893,94.0126 103.808,94.261 103.723,94.5095 103.638,94.5923 103.554,94.7579 103.469,94.8407 103.384,94.9235 103.215,95.0063 103.046,95.0891 102.876,95.172 102.368,95.2548 102.284,95.2548 102.199,95.2548 101.098,95.3376 101.013,95.4204 100.929,95.5032 100.844,95.586 100.759,95.6688 100.675,95.7517 100.59,95.8344 100.505,95.9173 100.421,96.0001 100.251,96.0829 100.082,96.1657 99.9972,96.1657 99.6584,96.0829 99.4044,96.0001 99.1503,96.0001 99.1503,96.1657 99.2351,96.2485 99.3197,96.3314 99.4891,96.4141 99.5738,96.497 99.6584,96.5798 99.7432,96.6626 99.7432,96.9938 99.6584,97.1594 99.4891,97.2423 98.8963,97.2423 98.6423,97.1594 98.3035,97.0767 98.1342,96.9938 97.9648,96.911 97.6261,96.8282 97.118,96.8282 96.9486,96.911 96.9486,97.2423 97.0333,97.4079 97.118,97.5735 97.2027,97.6564 97.2874,97.822 97.3721,97.9048 97.4567,97.9876 97.5414,98.0704 97.6261,98.2361 97.7108,98.4017 97.7954,98.5673 97.7954,98.8985 97.7108,99.147 97.6261,99.3126 97.4567,99.3954 97.3721,99.4782 97.2874,99.6438 96.864,99.7267 96.1018,99.7267 95.8478,99.6438 95.7631,99.561 95.6784,99.4782 95.5937,99.3954 95.5091,99.3126 95.4244,99.2298 95.3397,99.147 95.255,99.0642 95.1703,98.8985 95.0856,98.8157 95.001,98.7329 94.9163,98.5673 94.8316,98.4017 94.7469,98.2361 94.6622,98.1532 94.5776,97.9876 94.4929,97.9048 94.4082,97.7391 94.3235,97.6564 94.2388,97.3251 94.2388,96.5798 94.2388,96.2485 94.1541,96.0829 94.0695,96.0001 93.9848,95.9173 93.9001,95.8344 93.8154,95.7517 93.8154,95.172 93.9001,94.9235 93.9848,94.7579 94.0695,94.5923 94.1541,94.5095 94.2388,94.4266 94.3235,94.3438 94.4929,94.261 94.7469,94.261 94.9163,94.3438 95.001,94.4266 95.001,94.5923 94.9163,94.7579 94.8316,94.8407 94.8316,95.2548 94.9163,95.3376 95.5091,95.3376 95.6784,95.2548 95.8478,95.172 95.9325,95.0891 96.0171,95.0063 96.1018,94.8407 96.1865,94.6751 96.2712,94.5095 96.3559,94.1782 96.4405,93.7642 96.5252,93.5985 96.6099,93.4329 96.6946,93.3501 96.7793,93.2673 96.9486,93.1845 97.0333,93.1016 97.2874,93.0189 97.3721,93.0189 97.6261,93.1016 97.7108,93.1845 97.7954,93.2673 97.8802,93.3501 97.9648,93.4329 98.0495,93.5157 98.2189,93.5985 98.3035,93.7642 98.3882,93.8469 98.4729,93.9298 98.5576,94.0126 98.727,94.0954 98.8116,94.261 98.981,94.3438 99.0657,94.4266 99.2351,94.5095 99.3197,94.5923 99.4044,94.6751 99.4891,94.7579 99.7432,94.8407 99.8278,94.9235 99.9972,94.9235 100.082,94.7579 100.082,93.7642 99.9972,93.5985 99.9125,93.5157 99.8278,93.4329 99.7432,93.3501 99.6584,93.2673 99.5738,93.1845 99.4044,93.1016 99.3197,93.0189 99.2351,92.936 99.1503,92.8532 99.1503,92.5219 99.3197,92.4392 99.5738,92.4392 99.8278,92.5219 99.9972,92.6048 100.082,92.6048 100.349,92.6006 100.251,92.4392 100.167,92.2735 100.082,92.1079 99.9972,91.8595 99.9972,91.611 100.082,91.5282 100.167,91.4454 101.606,91.4454 "/>
   <polygon id="_44314992" class="fil0" points="101.437,97.4079 101.521,97.5735 101.606,97.6564 101.606,98.1532 101.521,98.3188 101.437,98.4845 101.352,98.5673 101.267,98.6501 101.183,98.7329 101.013,98.8157 100.929,98.8985 100.759,98.9814 100.675,99.0642 100.59,99.147 100.505,99.147 100.336,99.0642 100.251,98.8985 100.167,98.8157 100.082,98.7329 99.9972,98.4845 99.9972,98.3188 100.082,98.0704 100.167,97.9048 100.251,97.822 100.336,97.6564 100.505,97.5735 100.675,97.4907 100.844,97.4079 101.183,97.3251 101.267,97.3251 "/>
   <polygon id="_45601904" class="fil0" points="81.96,108.836 82.0446,108.919 82.1294,109.002 82.214,109.167 82.214,109.581 82.1294,109.913 82.0446,110.244 81.96,110.575 81.8753,110.658 81.7907,110.906 81.7059,110.989 81.6213,111.072 81.5366,111.155 81.4519,111.238 81.3672,111.321 81.2826,111.403 81.0285,111.403 80.9438,111.321 80.8591,111.238 80.7745,111.155 80.6897,110.824 80.6897,110.078 80.7745,109.664 80.8591,109.416 80.9438,109.333 81.0285,109.25 81.1132,109.167 81.1978,109.084 81.2826,109.002 81.3672,108.919 81.4519,108.836 81.7059,108.753 81.7907,108.753 "/>
   <polygon id="_43445080" class="fil0" points="98.8963,115.544 99.1503,115.627 99.4044,115.709 99.5738,115.792 99.6584,115.875 99.9125,115.958 99.9972,116.041 100.251,116.124 100.421,116.206 100.59,116.289 100.675,116.372 100.844,116.455 101.013,116.538 101.183,116.62 101.267,116.703 101.437,116.786 101.606,116.869 101.691,116.952 101.86,117.035 101.945,117.117 102.114,117.2 102.114,117.366 102.284,117.366 102.453,117.449 102.453,117.614 102.622,117.614 102.707,117.697 102.876,117.78 102.961,117.863 103.046,117.946 103.13,118.028 103.3,118.111 103.384,118.194 103.469,118.277 103.554,118.36 103.638,118.442 103.723,118.525 103.893,118.608 103.977,118.691 104.062,118.774 104.231,118.856 104.316,119.022 104.485,119.105 104.57,119.188 104.655,119.271 104.739,119.353 104.824,119.436 104.909,119.519 105.078,119.602 105.163,119.685 105.247,119.767 105.332,119.85 105.501,119.933 105.586,120.016 105.671,120.099 105.756,120.181 105.925,120.264 106.094,120.347 106.179,120.43 106.264,120.513 106.348,120.596 106.433,120.678 106.433,120.844 106.264,120.927 105.84,120.927 105.501,120.844 105.247,120.761 105.163,120.678 104.909,120.596 104.739,120.513 104.57,120.43 104.401,120.347 104.316,120.264 104.147,120.181 104.062,120.099 103.893,120.016 103.808,119.933 103.723,119.85 103.554,119.767 103.469,119.685 103.384,119.602 103.3,119.519 103.215,119.436 103.046,119.353 102.961,119.271 102.876,119.188 102.792,119.105 102.707,119.022 102.622,118.939 102.538,118.856 102.453,118.774 102.284,118.691 102.199,118.525 102.03,118.442 101.945,118.36 101.86,118.194 101.775,118.028 101.691,117.946 101.606,117.863 101.521,117.78 101.437,117.697 101.352,117.614 101.267,117.531 101.098,117.449 100.929,117.366 100.759,117.283 100.505,117.2 100.336,117.117 100.167,117.035 99.9125,116.952 99.6584,116.869 99.4044,116.786 99.1503,116.703 98.8963,116.62 98.727,116.538 98.6423,116.455 98.3882,116.372 98.2189,116.289 98.1342,116.206 97.9648,116.124 97.9648,115.958 97.7954,115.958 97.7954,115.544 97.8802,115.461 98.6423,115.461 "/>
   <polygon id="_43444408" class="fil0" points="82.2987,115.213 82.3834,115.296 82.4681,115.461 82.5527,115.627 82.6375,115.958 82.7221,116.124 82.8068,116.372 82.8915,116.62 82.9762,116.703 83.0608,116.869 83.1456,117.035 83.2302,117.366 83.2302,118.442 83.2302,118.939 83.3149,119.188 83.3149,119.353 83.5689,119.353 83.9077,119.436 83.9924,119.519 84.077,119.602 84.1617,119.767 84.2464,119.933 84.3311,120.016 84.9238,120.016 85.0085,119.933 85.1779,119.85 85.3473,119.767 85.686,119.767 85.7707,119.85 85.8553,120.016 85.94,120.264 86.0247,120.678 86.4481,120.678 86.5328,120.596 86.7022,120.513 87.0409,120.513 87.1256,120.596 87.2102,120.678 87.2102,121.092 87.1256,121.258 87.0409,121.424 86.9562,121.506 86.8715,121.589 86.7868,121.672 86.7022,121.755 86.6175,121.838 86.5328,121.921 86.4481,122.003 86.2788,122.086 86.1941,122.169 86.1094,122.252 86.0247,122.335 85.8553,122.417 85.7707,122.5 85.686,122.583 85.6013,122.832 85.5166,122.997 85.4319,123.411 85.3473,123.659 85.2626,123.991 85.1779,124.322 85.0932,124.488 85.0085,124.653 84.9238,124.819 84.8392,124.902 84.7545,124.985 84.6698,125.067 84.5005,125.15 84.3311,125.233 83.823,125.233 83.4843,125.15 83.3149,125.067 83.1456,124.985 83.0608,124.902 82.9762,124.819 82.8915,124.736 82.8068,124.653 82.7221,124.571 82.6375,124.488 82.5527,124.074 82.5527,122.749 82.6375,122.666 82.7221,122.5 82.8068,122.417 82.8915,122.335 82.9762,122.252 83.0608,122.169 83.1456,122.003 83.1456,121.258 83.0608,121.175 82.8915,121.175 82.8068,121.258 82.7221,121.341 82.6375,121.506 82.5527,121.672 82.4681,121.755 82.3834,121.838 82.2987,121.838 82.1294,121.755 82.0446,121.589 81.96,121.506 81.8753,121.258 81.7907,120.761 81.7059,119.353 81.5366,119.353 81.4519,119.436 81.3672,119.519 81.2826,119.602 81.1978,119.685 81.1132,119.767 80.9438,119.85 80.7745,119.933 80.6051,120.016 80.5204,120.016 80.2664,119.933 80.1817,119.85 80.097,119.767 80.0123,119.602 80.0123,119.271 80.097,118.856 80.1817,118.608 80.2664,118.277 80.351,118.111 80.4357,117.863 80.5204,117.697 80.6051,117.531 80.6897,117.283 80.7745,117.117 80.8591,116.952 80.9438,116.703 81.0285,116.62 81.1132,116.455 81.1978,116.206 81.2826,116.041 81.3672,115.875 81.4519,115.709 81.5366,115.627 81.6213,115.544 81.7059,115.378 81.7907,115.296 81.8753,115.213 81.96,115.13 82.214,115.13 "/>
   <polygon id="_43446232" class="fil0" points="80.5204,123.908 80.6051,123.991 80.6897,124.156 80.7745,124.239 80.8591,124.405 80.9438,124.571 81.0285,124.653 81.1132,124.819 81.1978,124.985 81.2826,125.15 81.3672,125.316 81.4519,125.482 81.5366,125.813 81.6213,125.978 81.7059,126.144 81.7907,126.558 81.8753,126.807 81.96,127.303 82.0446,127.717 82.1294,128.297 82.214,128.711 82.2987,129.208 82.2987,129.374 82.1294,129.374 82.1294,129.539 81.8753,129.539 81.7907,129.374 81.7059,129.291 81.6213,128.877 81.5366,128.546 81.4519,128.297 81.3672,127.966 81.2826,127.717 81.1978,127.303 81.1132,127.055 81.0285,126.724 80.9438,126.475 80.8591,126.227 80.7745,125.978 80.6897,125.647 80.6051,125.399 80.5204,125.15 80.4357,124.902 80.351,124.736 80.2664,124.571 80.1817,124.322 80.1817,123.825 80.2664,123.742 80.4357,123.742 "/>
   <path id="_43446520" class="fil0" d="M88.9886 103.785l-0.5081 0.0828 -0.2541 0.0828 -0.1693 0.0829 -0.2541 0.0827 -0.0847 0.0829 -0.0846 0.0828 -0.1694 0.0828 -0.1694 0.0828 -0.0847 0.0828 -0.0846 0.0828 -0.0847 0.1657 -0.0847 0.0828 -0.0847 0.0828 -0.0847 0.1656 -0.0846 0.2484 0 0.5797 0.0846 0.0828 0.0847 0.0828 0.2541 0 0.1693 -0.0828 0.0847 -0.0828 0.0847 -0.0828 0.1694 -0.0828 0.0846 -0.0828 0.0847 -0.0828 0.0847 -0.0828 0.0847 -0.0829 0.0847 -0.0828 0.0847 -0.0828 0.0846 -0.0828 0.0847 -0.0828 0.0847 -0.0828 0.0847 -0.0828 0.0846 -0.1656 0.0848 -0.0829 0.0846 -0.0828 0.0847 -0.1656 0.0847 -0.1656 0.0847 -0.1657 0 -0.3312zm-5.9278 -39.833l0.0848 0.1656 0.0846 0.0829 0.1694 0.0828 0.0847 0.0828 0.0846 0.0828 0.2541 0.0828 0.254 0.0828 0.2541 0.0828 0.1694 0.0829 0.1693 0.0827 0.3387 0.0829 0.0847 0.0828 0.1694 0.0828 0.1693 0.0828 0.1694 0.0828 0.1694 0.0829 0.1693 0.0827 0.0847 0.0829 0.0847 0.0828 0.0847 0.1656 0.0847 0.1656 0.0846 0.1657 0.0847 0.0828 0.0847 0.0828 0.0847 0.1656 0.0847 0.1656 0.0846 0.1657 0.0847 0.1656 0.0847 0.1656 0.0847 0.0828 0.0847 0.1656 0.0846 0.1657 0.0847 0.1656 0.0847 0.1656 0.0847 0.0828 0.0847 0.0828 0.0847 0.1657 0.0846 0.0828 0.0847 0.1656 0.0847 0.1656 0.0847 0.0829 0.0847 0.0827 0.0847 0.1657 0.0846 0.0828 0.0847 0.1656 0.0847 0.0829 0.0847 0.0827 0.0846 0.1657 0.0848 0.2484 0.0846 0.3313 0 0.1656 -0.0846 0.6625 -0.0848 0.4141 -0.0846 0.3312 0 1.2422 0.0846 0.3312 0.0848 1.0766 0 0.2484 -0.0848 1.4907 -0.0846 0.4969 0 2.65 0.0846 0.9109 0.0848 2.0704 0 2.3187 -0.0848 0.3312 -0.0846 0.1657 -0.0847 0.1656 -0.1694 0 0 0.1656 -0.1693 0.0828 -0.2541 0.0829 -0.1693 0.0827 -0.2541 0.0829 -0.1694 0.0828 0 0.4969 0.0847 0.1656 0.0847 0.1656 0.0847 0.2485 0.0847 0.1656 0.0847 0.2485 0.0846 0.414 0.0847 0.6625 0 3.064 0 0.6626 0.0847 2.2359 0.0847 0.5797 0.0847 0.2484 0.0847 0.3313 0.0846 0.414 0.0847 0.1657 0.0847 0.2484 0.0847 0.1656 0.0846 0.1657 0.0848 0.2484 0.0846 0.2485 0.0847 0.3312 0.0847 0.3312 0.0847 0.4141 0.0846 0.5797 0.0848 0.9109 0 0.3313 -0.0848 1.1594 -0.0846 0.4141 -0.0847 0.414 0 0.2484 0.0847 0.3313 0.0846 0.0828 0.2541 0.0828 0.4234 0 0.2541 -0.0828 0.1693 -0.0828 0.0847 -0.0828 0.0847 -0.0828 0.0846 -0.0828 0.0848 -0.0829 0.0846 -0.0827 0.0847 -0.1657 0.0847 -0.0828 0.0847 -0.1656 0.0846 -0.1656 0.1694 0 0 -0.1657 0.0847 -0.2484 0.0846 -0.1656 0.0848 -0.1657 0.0846 -0.1656 0.0847 -0.0828 0.0847 -0.2484 0.0847 -0.1657 0.0846 -0.1656 0.0848 -0.0828 0.0846 -0.1656 0.0847 -0.1657 0.0847 -0.0828 0.0847 -0.2484 0.0846 -0.0828 0.0847 -0.1656 0.0847 -0.0829 0.0847 -0.1656 0.0847 -0.0828 0.0847 -0.0828 0.0846 -0.0828 0.0847 -0.0828 0.1694 -0.0829 0.0847 -0.0827 0.1693 0 0.0847 0.0827 0.0847 0.0829 0.0847 0.0828 0 0.414 -0.0847 0.1657 -0.0847 0.1656 -0.0847 0.0828 -0.0846 0.1656 0 0.2485 0.0846 0.0828 0.0847 0.0828 0.254 0.0828 0.0847 0.0828 0.0847 0.0828 0.0847 0.0828 0.0847 0.1657 0.0847 0.1656 0.0846 0.1656 0.0847 0.1656 0.0847 0.2485 0.0847 0.1656 0.0847 0.2485 0.0847 0.3312 0.0846 0.3312 0.0847 0.3313 0.0847 0.1656 0.0847 0.1657 0.0847 0.1656 0.0846 0.1656 0.0847 0.1656 0.0847 0.1656 0 0.2485 -0.0847 0.3312 -0.0847 0.3313 -0.0846 0.2484 -0.0847 0.2485 -0.0847 0.2484 0 0.8281 0.0847 0.0828 0.3387 0.0829 0.7621 0.0828 0.0847 0.0828 0.0847 0.0828 0.0847 0.0828 0.0847 0.1656 0.0846 0.1656 0.0847 0.0829 0.0847 0.0828 0.0847 0.1656 0.0847 0.1657 0.0847 0.0827 0.0846 0.1657 0.1694 0.0828 0.0847 0.0828 0.0847 0.0828 0.1693 0.0829 0.0847 0.0827 0.0847 0.0829 0.0847 0.0828 0.0846 0.0828 0.1694 0.0828 0.2541 0.0828 0.1693 0.0828 0.1694 0.0828 0.0847 0.0829 0.0847 0.0827 0.1693 0.0829 0.1694 0.0828 0.0846 0.0828 0.1694 0.0828 0.0847 0.0828 0.0847 0.0829 0.1693 0.0827 0.0848 0.0829 0.0846 0.0828 0.1694 0.0828 0 0.1656 0.1693 0 0.0847 0.0829 0.0847 0.0827 0.0847 0.0829 0.0846 0.0828 0.1694 0.0828 0.0847 0.0828 0.0847 0.0828 0.0847 0.0828 0.0846 0.0828 0.0848 0.0829 0.0846 0.0828 0.0847 0.0828 0.0847 0.0828 0.0847 0.0828 0.0846 0.0828 0.0847 0.0828 0.0847 0.0828 0.0847 0.0829 0.0847 0.0828 0.0847 0.0828 0.0846 0.0828 0.0847 0.0828 0.0847 0.0828 0.0847 0.0828 0 0.1656 0.1694 0 0.0846 0.1657 0.0847 0.0828 0 0.1656 0.1694 0 0.0846 0.0828 0.0847 0.0828 0.0847 0.0829 0.0847 0.1656 0.0847 0.0828 0.0847 0.1656 0.0846 0.0828 0.0847 0.0829 0.0847 0.0827 0.0847 0.1657 0.0847 0.0828 0.0847 0.1656 0.0846 0.0829 0.0847 0.1656 0.0847 0.0828 0.0847 0.1656 0.0847 0.0828 0.0846 0.1656 0.0847 0.0829 0.0847 0.0827 0.0847 0.1657 0.0847 0.0828 0.0846 0.1656 0.0847 0.0829 0.0847 0.0827 0.0847 0.0829 0.0847 0.0828 0.0847 0.0828 0.0846 0.0828 0.0847 0.0828 0.0847 0.0828 0.0847 0.0828 0.0847 0.0829 0.0846 0.0828 0.0847 0.0828 0.0847 0.0828 0.0847 0.0828 0.1694 0.0828 0.0846 0.0828 0.0847 0.0829 0.0847 0.0828 0.0847 0.0828 0.1694 0.0828 0.0846 0.0828 0.0847 0.0828 0.0847 0.1656 0.0847 0.0829 0.0846 0.0828 0.1694 0.0828 0.0847 0.0828 0.0847 0.0828 0.0847 0.0828 0.1693 0.0828 0.0847 0.0828 0.0847 0.0828 0.0846 0.0829 0.1694 0.0828 0.0847 0.0828 0.1694 0.0828 0.0846 0.0828 0.1694 0.0828 0.1694 0.0828 0.1693 0.0829 0.0848 0.0827 0.1693 0.0829 0.0846 0.0828 0.1694 0.0828 0.1694 0.0828 0.1693 0.0828 0.0848 0.0829 0.1693 0.0827 0.1694 0.0829 0.1694 0.0828 0.1693 0.0828 0.0847 0.0828 0.1693 0.0828 0.0847 0.0829 0.1694 0.0827 0.1694 0.0829 0.1693 0.0828 0.0847 0.0828 0.1693 0.0828 0.0847 0.0828 0.1694 0.0828 0.1694 0.0828 0.0846 0.0829 0.2541 0.0827 0.254 0.0829 0.1694 0.0828 0.254 0.0828 0.1694 0.0828 0.2541 0.0828 0.1693 0.0829 0.1694 0.0827 0.0847 0.0829 0.1693 0.0828 0.1694 0.0828 0.0847 0.0828 0.1693 0.0828 0.1694 0.0828 0.1694 0.0828 0 0.1657 0.1693 0 0.1694 0.0828 0.0847 0.0828 0.0847 0.0828 0.1693 0.0828 0.0847 0.0828 0.1693 0.0828 0.0848 0.0829 0.1693 0.0828 0.1694 0.0828 0.0846 0.0828 0.0847 0.0828 0.0847 0.0828 0.0847 0.0828 0.0847 0.0829 0.0847 0.0827 0.0846 0.0829 0.0847 0.0828 0.0847 0.0828 0.1693 0.0828 0.0848 0.0828 0.0846 0.0828 0.0847 0.0828 0.0847 0.0829 0.0847 0.0827 0.1694 0.0829 0 0.1656 0.1693 0 0.0847 0.0828 0.0847 0.0828 0.0846 0.0829 0.0847 0.1656 0.1694 0.0828 0.0846 0.0828 0.0848 0.0828 0.0846 0.0828 0.0847 0.0829 0.0847 0.0827 0.0847 0.0829 0.0846 0.0828 0.0848 0.0828 0.0846 0.0828 0.0847 0.0828 0.0847 0.0829 0.0847 0.0827 0.1693 0.0829 0.0847 0.0828 0.0847 0.0828 0.0847 0.0828 0.0847 0.0828 0.0846 0.0828 0.1694 0.0828 0.0847 0.0829 0.0846 0.0827 0.0848 0.0829 0.0846 0.0828 0.2541 0.0828 0.0846 0.0828 0.1694 0.0828 0.0847 0.0829 0.0847 0.0827 0.1693 0.0829 0.1694 0.0828 0.7621 0 0.1694 -0.0828 0.0847 -0.0829 0.1693 -0.0827 0.0847 -0.0829 0.1694 -0.0828 0.0847 -0.0828 0.1693 -0.0828 0.0847 -0.0828 0.1694 -0.0829 0.0847 -0.0827 0.0846 -0.0829 0.1694 -0.0828 0.1694 -0.0828 0.0847 -0.0828 0.1693 -0.0828 0.1694 -0.0828 0.0847 -0.0828 0.0847 -0.0829 0.1693 -0.0827 0.1694 -0.0829 0.0846 -0.0828 0.0847 -0.0828 0.1694 -0.0828 0.1694 -0.0828 0.0846 -0.0829 0.1694 -0.0827 0.2541 0 0 -0.1657 0.1693 -0.0828 0.254 -0.0828 0.1694 -0.0828 0.2541 -0.0829 0.1694 -0.0827 0.0846 -0.0829 0.1693 -0.0828 0.2541 -0.0828 0.254 -0.0828 0.1694 -0.0828 0.3387 -0.0829 0.2541 -0.0827 1.1008 0 0.3388 0.0827 0.5928 0.0829 0.254 0.0828 0.1694 0.0828 0.0847 0.0828 0.1693 0.0828 0.0847 0.0829 0.0847 0.0827 0.0847 0.0829 0.0846 0.0828 0.0847 0.1656 0.0847 0.1657 0 0.3312 -0.0847 0.1656 -0.0847 0.1656 -0.0846 0.0829 -0.0847 0.0828 -0.2541 0.0828 -0.254 0.0828 -0.4234 0 -0.1694 -0.0828 -0.1694 -0.0828 -0.1693 -0.0828 -0.1694 -0.0829 -0.0846 -0.0827 -0.8469 0 -0.0847 0.0827 -0.1693 0.0829 -0.0847 0.0828 -0.1693 0.0828 -0.0848 0.1656 -0.0846 0.0828 -0.0847 0.0828 -0.0847 0.0829 -0.0847 0.1656 -0.0846 0.1656 -0.0848 0.0828 -0.0846 0.0828 -0.0847 0.0829 -0.0847 0.1656 -0.0847 0.1656 -0.0846 0.0828 -0.0848 0.0828 -0.1693 0.0828 -0.0846 0.0828 -0.0848 0.0829 -0.0846 0.0828 -0.0847 0.0828 -0.0847 0.0828 -0.0847 0.0828 -0.254 0.0828 -0.1694 0.0828 -0.254 0.0828 -0.4234 0.0829 -0.3388 0.0828 -0.3387 0.0828 -0.1693 0.0828 -0.1694 0 0 0.1656 0 0.4141 0.0847 0.0828 0.0847 0.0828 0.1693 0.0828 0.0847 0.0828 0.0847 0.0828 0.1693 0.0829 0.0847 0.0827 0.0847 0.0829 0.1694 0.0828 0.0846 0.0828 0.0847 0.0828 0.0847 0.0828 0.0847 0.0829 0.0847 0.0827 0.1693 0.0829 0.0847 0.0828 0.0847 0.0828 0.0847 0.0828 0.0846 0.0828 0.0848 0.0829 0.0846 0.0827 0.0847 0.0829 0.0847 0.0828 0.0847 0.0828 0 0.1656 0.1694 0 0.0846 0.1656 0.0847 0.0829 0.0846 0.0828 0.0848 0.1656 0.0846 0.0828 0.0847 0.0828 0.0847 0.1657 0.0847 0.0827 0.0846 0.0829 0.0848 0.0828 0.0846 0.0828 0.0847 0.0828 0.0847 0.0828 0.0847 0.0829 0.0846 0.0827 0.0848 0.0829 0.0846 0.0828 0.0847 0.0828 0.0847 0.0828 0.0847 0.0828 0.0846 0.0828 0.0847 0.0828 0.0847 0.0829 0.0847 0.0828 0.0847 0.0828 0.0847 0.0828 0.0846 0.0828 0.0847 0.0828 0.0847 0.0828 0.0847 0.0828 0.0846 0.0829 0.0848 0.0828 0.0846 0.0828 0.0847 0.0828 0.0847 0.0828 0.0847 0.0828 0.0846 0.1657 0.0847 0.0827 0.0847 0.0829 0.0847 0.0828 0.0847 0.0828 0.0847 0.1656 0.0846 0.1656 0.0847 0.1656 0.0847 0.1657 0.0847 0.1656 0.0847 0.3313 0.0847 0.4141 0.0846 1.9874 0.0847 0.6625 0.0847 0.3313 0.0847 0.5797 0.0847 1.325 0 0.7453 -0.3388 0 -0.0846 -0.0828 -0.0847 -0.0828 -0.0847 -0.0828 -0.0847 -0.3313 -0.0847 -0.3313 -0.0847 -0.414 -0.0846 -0.1656 -0.0847 -0.3313 -0.0847 -0.3312 0 -0.2485 -0.1694 0 0 0.1657 -0.0847 0.1656 -0.0846 0.0828 -0.1694 0.0828 -0.1693 0 -0.0848 -0.1656 -0.0846 -0.1656 -0.0847 -0.1657 -0.0847 -0.1656 -0.0847 -0.2484 -0.0846 -0.1657 -0.0847 -0.1656 -0.0847 -0.2484 -0.0847 -0.0828 -0.0847 -0.1657 -0.0847 -0.1656 -0.0846 -0.1656 0 -0.1656 -0.1694 0 -0.0847 -0.0829 -0.0846 -0.0827 -0.0848 -0.1657 0 -0.3312 0.0848 -0.0828 0.0846 -0.0829 0.6775 0 0.1693 0.0829 0.2541 0.0828 0.3387 0.0828 0 -0.4141 -0.1693 0 -0.1694 -0.0828 -0.0847 -0.0828 -0.1694 -0.0828 -0.254 -0.0828 -0.2541 -0.0829 -0.254 -0.0827 -0.5928 -0.0829 0 0.1656 0 0.8282 0.0847 0.5797 0.0847 0.3312 0.0847 0.2485 0.0846 0.2484 0.0848 0.2484 0 0.7454 -0.0848 0.2484 -0.0846 0.0828 -0.1694 0.0828 -0.0847 0.0828 -0.3387 0 -0.0847 -0.5797 -0.0847 -0.3312 -0.0846 -0.2485 -0.0848 -0.3312 -0.0846 -0.2484 -0.0847 -0.1657 -0.0846 -0.1656 -0.0848 -0.1656 -0.0846 -0.0828 -0.0847 -0.1656 -0.0847 -0.1657 -0.0847 -0.2484 -0.0846 -0.5797 -0.0848 -0.4969 -0.0846 -1.5734 -0.0847 -0.3313 -0.0847 -0.3312 -0.0847 -0.2485 -0.0846 -0.2484 -0.0847 -0.2484 -0.0847 -0.0829 -0.0847 -0.1656 -0.0847 -0.1656 -0.0847 -0.0828 -0.0846 -0.0828 -0.0847 -0.1656 -0.0847 -0.0829 -0.1694 -0.0828 -0.0847 -0.0828 -0.0846 -0.0828 -0.0847 -0.1657 -0.1694 -0.0827 -0.0846 -0.0829 -0.0847 -0.0828 -0.0847 -0.0828 -0.0847 -0.0828 -0.0847 -0.0828 -0.0847 -0.0828 -0.0846 -0.0828 -0.1694 -0.0829 -0.0847 -0.0827 -0.1694 -0.0829 -0.0846 -0.0828 -0.0847 -0.0828 -0.1694 -0.0828 -0.1693 -0.0828 -0.0847 -0.0829 -0.1694 -0.0827 -0.0847 -0.0829 -0.0847 -0.0828 -0.1693 -0.0828 -0.1694 -0.0828 -0.0847 -0.0828 -0.254 -0.0829 -0.1694 -0.0827 -0.0846 -0.0829 -0.1694 -0.0828 -0.1694 -0.0828 -0.0847 -0.0828 -0.1693 -0.0828 -0.0847 -0.0829 -0.1694 -0.0827 -0.1693 -0.0829 -0.0847 -0.0828 -0.254 -0.0828 -0.0848 -0.0828 -0.1693 -0.0828 -0.0847 -0.0828 -0.1693 -0.0828 -0.1694 -0.0829 -0.1694 -0.0827 -0.1693 -0.0829 -0.0847 -0.0828 -0.0847 -0.0828 -0.1693 -0.0828 -0.1694 -0.0828 -0.1694 -0.0828 -0.1693 -0.0828 -0.0848 -0.0829 -0.1693 -0.0828 -0.1694 -0.0828 -0.0846 -0.0828 -0.1694 -0.0828 -0.0847 -0.0828 -0.1694 -0.0828 -0.0846 -0.0828 -0.1694 -0.0829 -0.2541 -0.0828 -0.1693 -0.0828 -0.254 -0.0828 -0.1694 -0.0828 -0.0847 -0.0828 -0.254 -0.0828 -0.1694 -0.0829 -0.1693 -0.0827 -0.2541 -0.0829 -0.1694 -0.0828 -0.254 -0.0828 -0.1694 -0.0828 -0.1693 -0.0828 -0.2541 -0.0829 -0.254 -0.0827 -0.1694 -0.0829 -0.254 -0.0828 -0.1694 -0.0828 -0.254 -0.0828 -0.1694 -0.0828 -0.2541 -0.0828 -0.254 -0.0828 -0.254 -0.0829 -0.1694 -0.0827 -0.1694 -0.0829 -0.1693 -0.0828 -0.1694 -0.0828 -0.0847 -0.0828 -0.1694 -0.0828 -0.0846 -0.0829 -0.1694 -0.0827 -0.1693 -0.0829 0 -0.1656 -0.2541 0 -0.0847 -0.0828 -0.0847 -0.0828 -0.0846 -0.0829 -0.0847 -0.0827 -0.1694 -0.0829 -0.0846 -0.0828 -0.0848 -0.0828 -0.1693 -0.0828 -0.0847 -0.1657 -0.1693 -0.0827 -0.0848 -0.0829 -0.0846 -0.0828 -0.0847 -0.0828 0 -0.1656 -0.1694 0 -0.0846 -0.1656 -0.0848 -0.0829 -0.0846 -0.0827 -0.0847 -0.1657 -0.0846 -0.0828 -0.0848 -0.0828 -0.0846 -0.0828 -0.0847 -0.0828 -0.0847 -0.1657 -0.0847 -0.1656 -0.0846 -0.1656 -0.0848 -0.0828 -0.0846 -0.0828 -0.0847 -0.1657 -0.0847 -0.1656 -0.0847 -0.1656 -0.0846 -0.1656 -0.0848 -0.0829 -0.0846 -0.0827 -0.1694 -0.0829 -0.0847 -0.0828 -0.0846 -0.0828 -0.1694 -0.0828 -0.0847 -0.0828 -0.1694 -0.0829 -0.0846 -0.0827 -0.1694 -0.0829 -0.0847 -0.0828 -0.0846 -0.0828 -0.1694 -0.0828 -0.0847 -0.0828 -0.1694 -0.0828 -0.0846 -0.0828 -0.0847 -0.0829 -0.0847 -0.0827 -0.0847 -0.0829 -0.1694 -0.0828 -0.1693 -0.0828 -0.0847 -0.1656 -0.1694 -0.0829 -0.0846 -0.0827 -0.1694 -0.0829 -0.0847 -0.0828 -0.0847 -0.0828 -0.0847 -0.0828 -0.0846 -0.0828 -0.1694 -0.0829 -0.0847 -0.0827 -0.0847 -0.0829 -0.0846 -0.0828 -0.0847 -0.0828 -0.1694 -0.0828 -0.0847 -0.0828 -0.0846 -0.0828 -0.0847 -0.0828 -0.0847 -0.0829 -0.1694 -0.0828 -0.0847 -0.0828 -0.0846 -0.0828 -0.1694 -0.0828 -0.0847 -0.0828 -0.1694 -0.0828 -0.1693 -0.0828 0 -0.1657 -0.1694 0 -0.1694 -0.0828 -0.1693 -0.0828 -0.0847 -0.0828 -0.1693 -0.0828 -0.0847 -0.0828 -0.1694 -0.0828 -0.0847 -0.0828 -0.1693 -0.0829 -0.1694 -0.0828 -0.0847 -0.0828 -0.1694 -0.0828 -0.0846 -0.0828 -0.0847 -0.0828 -0.1694 -0.0828 -0.1694 -0.0829 -0.1693 -0.0828 -0.0847 -0.1656 -0.1693 -0.0828 -0.0847 -0.0828 -0.1694 -0.0828 -0.0846 -0.0829 -0.0848 -0.0827 -0.0846 -0.0829 -0.0847 -0.0828 -0.1694 -0.0828 -0.0846 -0.0828 -0.0848 -0.0828 -0.0846 -0.0829 -0.0847 -0.0827 -0.0847 -0.0829 -0.0847 -0.0828 -0.0846 -0.0828 -0.0847 -0.0828 -0.1694 -0.0828 -0.0847 -0.0828 -0.0847 -0.0828 -0.1693 -0.0829 -0.1694 -0.0827 -0.254 -0.0829 -0.1694 -0.0828 -0.4234 -0.0828 -0.254 -0.0828 -2.3711 0 -0.5928 0.0828 -0.4234 0.0828 -0.254 0.0828 -0.2541 0.0829 -0.254 0.0827 -0.1694 0.0829 -0.0847 0.0828 -0.0847 0.0828 -0.0847 0.0828 -0.0846 0.0828 -0.0847 0.0828 -0.0847 0.0828 -0.0847 0.1656 -0.0846 0.0829 -0.0848 0.1656 -0.0846 0.0828 -0.0847 0.1657 -0.0847 0.0827 -0.0847 0.1657 -0.0846 0.1656 -0.0848 0.1656 -0.0846 0.1657 -0.0847 0.0828 -0.0847 0.2484 -0.0847 0.1656 -0.0846 0.1657 -0.0847 0.2484 -0.0847 0.1656 -0.0847 0.2485 -0.0846 0.2484 -0.0848 0.3312 -0.0846 0.0829 -0.0847 0.0828 -0.0847 0.1656 -0.0847 0.0828 -0.0846 0.0828 -0.0848 0.0828 -0.0846 0.0829 -0.0847 0.1656 -0.1694 0.0828 -0.0846 0.0828 -0.0847 0.0828 -0.0847 0.0828 -0.1693 0.0829 -0.2541 0.0827 -0.1694 0.0829 -0.1694 0.0828 -0.4233 0.0828 -0.0847 0 -0.0847 -0.0828 -0.0847 -0.0828 -0.0847 -0.1656 0 -0.911 0.0847 -0.2484 0.0847 -0.2485 0.0847 -0.2484 0 -0.4969 -0.0847 -0.2484 0 -0.1656 -0.1694 0 -0.0847 0 -0.1693 0.0828 -0.0847 0.0828 -0.0847 0.0828 -0.1694 0.0828 -0.0846 0.0828 -0.0847 0.0828 -0.1694 0.0828 -0.0847 0.0829 -0.3387 0 -0.0847 -0.0829 -0.1693 -0.0828 -0.1694 -0.0828 -0.0847 -0.0828 -0.3387 0 -0.0847 0.0828 -0.5081 0 -0.1693 -0.0828 -0.0847 -0.0828 -0.0847 -0.0828 -0.0847 -0.0828 -0.0846 -0.0828 -0.0848 -0.1657 -0.0846 -0.1656 -0.0847 -0.1656 -0.0847 -0.0828 -0.0847 -0.1657 -0.0846 -0.1656 0 -0.2484 0.0846 -0.1656 0.1694 -0.0829 0.0847 -0.1656 0.0846 -0.0828 0.0848 -0.0828 0.0846 -0.0829 0.0847 -0.1656 0.0847 -0.2484 0.0847 -0.1656 0.0846 -0.1657 0.0847 -0.1656 0.0847 -0.0828 0.0847 -0.0828 0.0847 -0.0828 0.0847 -0.0828 0.0846 -0.0829 0.0847 -0.0827 0.0847 -0.0829 0.254 -0.0828 0.2541 -0.0828 0.7621 -0.0828 0.6775 -0.0828 0 -0.3313 -0.0847 -0.1656 -0.8468 0 -0.1694 0.0828 -0.1693 0.0828 -0.0847 0.0828 -0.2541 0.0829 -0.1693 0.0827 -0.2541 0.0829 -0.1693 0.0828 -0.3388 0.0828 -0.1693 0.0828 -0.3387 0.0828 -0.7622 0 -0.254 -0.0828 -0.0847 -0.0828 -0.1694 -0.0828 0 -0.1657 -0.1694 0 -0.0846 -0.0827 -0.0847 -0.1657 -0.0847 -0.2484 -0.0847 -0.2485 0 -1.9875 0.0847 -0.414 0.0847 -0.3313 0.0847 -0.3312 0.0846 -0.1656 0.0848 -0.1657 0.0846 -0.1656 0.0847 -0.0828 0.0847 -0.1656 0.0847 -0.0829 0.0846 -0.0827 0.1694 -0.0829 0.1694 0 0 -0.1656 0.1693 -0.0828 0.0847 -0.0828 0.0847 -0.0829 0.0847 -0.0827 0.0846 -0.0829 0.0848 -0.0828 0.0846 -0.1656 0.0847 -0.0828 0.0847 -0.2485 0.0847 -0.1656 0 -0.1656 -0.1694 0 -0.0847 0.0828 -0.0846 0.1656 -0.0848 0.0828 -0.0846 0.0829 -0.0847 0.0827 -0.0847 0.0829 -0.0847 0.0828 -0.0846 0.1656 -0.1694 0.0828 -0.0847 0.0829 -0.0847 0.0827 -0.0847 0.0829 -0.0846 0.0828 -0.0847 0.0828 -0.1694 0.0828 -0.0846 0.0828 -0.4235 0 -0.0846 -0.0828 0 -0.414 0.0846 -0.0829 0.0847 -0.2484 0.0847 -0.0828 0.0847 -0.0829 0.0846 -0.0827 0.0848 -0.0829 0.0846 -0.0828 0.0847 -0.1656 0.0847 -0.0828 0.0847 -0.0828 0.0846 -0.0828 0.1694 0 0 -0.1657 0.0847 -0.0828 0.0847 -0.0828 0.0847 -0.0828 0.0846 -0.0828 0.1694 -0.0828 0.0847 -0.1657 0.0846 -0.0828 0.0848 -0.1656 0.0846 -0.0828 0.0847 -0.1656 0.0847 -0.1656 0.0847 -0.1657 0.0846 -0.1656 0.0847 -0.1656 0.0847 -0.2484 0.0847 -0.0829 0.0847 -0.2484 0.0847 -0.1657 0.0846 -0.3312 0.0847 -0.2485 0.0847 -0.2484 0.0847 -0.3312 0.0847 -0.1657 0.0846 -0.4968 0.0847 -0.6625 0 -0.1657 -0.0847 -0.1656 -0.0846 -0.414 -0.0847 -0.2485 0 -1.7391 0.0847 -0.5797 0 -2.8156 -0.0847 -0.5797 -0.0847 -1.6562 -0.0847 -0.8281 -0.0847 -0.8282 -0.0846 -3.5609 -0.0847 -0.6625 -0.0847 -0.4141 -0.0847 -0.9938 0 -2.4843 0.0847 -1.2422 0.0847 -0.4969 0.0847 -0.6625 0.0846 -0.6625 0.0847 -0.5797 0.0847 -0.5797 0.0847 -0.4969 0.0847 -0.1656 0.0846 -0.5797 0.0847 -0.4968 0.0847 -0.4141 0.0847 -0.4141 0.0847 -0.3312 0.0847 -0.3313 0.0846 -0.3313 0.0847 -0.3312 0.0847 -0.4141 0.0847 -0.3312 0.0847 -0.4141 0.0846 -0.0828 0.0847 -0.4969 0.0847 -0.8281 0 -0.6625 -0.0847 -0.6625 -0.0847 -0.1656 -0.0846 -0.1656 -0.0847 -0.2485 0 -0.1656 -0.3387 0 -0.3388 -0.0828 -0.1693 -0.0828 -0.2541 -0.0829 -0.1693 -0.0827 -0.0847 -0.0829 -0.1694 -0.0828 -0.0847 -0.0828 -0.0847 -0.0828 -0.0846 -0.0828 -0.0847 -0.0829 -0.0847 -0.1656 -0.0847 -0.0828 -0.0846 -0.1656 -0.0848 -0.1657 -0.0846 -0.0827 -0.0847 -0.0829 -0.0847 -0.1656 -0.0847 -0.0828 -0.0846 -0.0828 -0.0847 -0.0828 -0.0847 -0.1657 -0.0847 -0.1656 -0.0847 -0.0828 -0.0847 -0.0828 -0.0846 -0.0828 -0.0847 -0.1657 -0.0847 -0.0828 -0.1693 -0.0828 -0.0848 -0.0828 -0.1693 -0.0828 -0.0847 -0.0828 -0.0847 -0.1656 0 -0.2485 0.0847 -0.0828 0.3388 0 0.1693 0.0828 0.1694 0.0828 0.0846 0.0829 0.0847 0.1656 0.0847 0.0828 0.0847 0.0828 0.1694 0.0828 0.0846 0.1656 0.0847 0.0828 0.0847 0.0829 0.0847 0.0828 0.1694 0.0828 0.0846 0.0828 0.0847 0.0828 0.5081 0 0.0847 -0.0828 0.0847 -0.0828 0 -0.8281 -0.0847 -0.3313 -0.0847 -0.1656 -0.0847 -0.1656 -0.0847 -0.0828 -0.0847 -0.0829 -0.0846 -0.0828 -0.0847 -0.0828 -0.254 -0.0828 -0.0848 -0.0828 -0.1693 -0.0828 -0.1694 -0.0828 -0.1693 -0.0829 -0.1694 -0.0827 -0.1694 -0.0829 -0.1693 -0.0828 -0.0847 -0.0828 -0.0847 -0.0828 -0.0846 -0.0828 -0.0848 -0.0829 -0.0846 -0.0827 -0.0847 -0.1657 -0.0847 -0.0828 -0.0847 -0.1656 -0.0846 -0.1656 0 -0.3313 0.0846 -0.0828 0.2541 0 0.0846 0.1656z"/>
   <polygon id="_43446808" class="fil0" points="89.8354,141.878 90.0048,141.961 90.1741,142.044 90.2588,142.127 90.3435,142.21 90.4281,142.292 90.5129,142.375 90.6822,142.458 90.7669,142.541 90.8516,142.624 90.9362,142.789 91.0209,142.872 91.1903,142.955 91.2749,143.121 91.3597,143.203 91.4443,143.286 91.529,143.369 91.6137,143.535 91.783,143.618 91.8678,143.783 91.9524,143.866 92.0371,143.949 92.1218,144.114 92.2065,144.197 92.2911,144.28 92.3758,144.363 92.4605,144.528 92.5452,144.611 92.6299,144.694 92.7146,144.86 92.7992,144.943 92.8839,145.108 92.9686,145.191 93.0533,145.274 93.0533,146.433 92.9686,146.682 92.8839,146.93 92.7992,147.096 92.7146,147.178 92.6299,147.344 92.5452,147.593 92.4605,147.675 92.3758,147.841 92.2911,147.924 92.2065,148.006 92.1218,148.172 92.0371,148.255 91.9524,148.421 91.8678,148.504 91.783,148.586 91.6984,148.752 91.6137,148.835 91.529,148.917 91.4443,149 91.3597,149.083 91.2749,149.249 91.1056,149.332 91.0209,149.414 90.9362,149.497 90.8516,149.58 90.7669,149.663 90.5975,149.746 90.5129,149.828 90.3435,149.911 90.2588,149.994 90.0894,150.077 90.0048,150.16 89.92,150.243 89.666,150.325 89.5813,150.408 89.4967,150.491 89.3273,150.574 89.2426,150.657 89.158,150.739 88.9886,150.822 88.8192,150.822 88.7345,150.739 88.7345,149.994 88.8192,149.497 88.9039,149.083 88.9886,148.586 89.0732,148.255 89.158,147.841 89.2426,147.51 89.2426,146.599 89.158,145.688 89.0732,145.025 88.9886,144.031 88.9886,142.624 89.0732,142.044 89.158,141.961 89.2426,141.878 89.412,141.796 89.5813,141.796 "/>
   <path id="_43447096" class="fil0" d="M112.53 129.208l0 0.3313 -0.0847 0.0828 -0.1694 0.0828 -0.3387 0.0828 -1.0162 0 -0.6775 -0.0828 -0.5927 -0.0828 -0.5081 -0.0828 -0.2541 -0.0829 -0.4233 -0.0827 -0.4235 -0.0829 -0.3387 -0.0828 -0.0847 -0.0828 -0.1693 -0.0828 -0.0847 -0.0828 -0.0847 -0.0828 -0.0847 -0.0828 -0.0847 -0.0829 -0.1693 -0.0827 -0.0847 -0.0829 -0.3388 -0.0828 -0.5927 -0.0828 -0.7621 0 -0.6775 0.0828 -0.6774 0.0828 -0.5928 0.0829 -0.4234 0.0827 -0.4235 0.0829 -0.4233 0.0828 -0.2541 0.0828 -0.3387 0.0828 -0.3388 0.0828 -0.3387 0.0828 -0.254 0.0828 -0.3387 0.0829 -0.3387 0.0827 -1.4397 0.0829 -2.2017 0.0828 0.0847 0.0828 0.0847 0.1656 0.1693 0.0829 0.0847 0.0827 0.0847 0.0829 0.0847 0.0828 0.0847 0.0828 0.0847 0.1656 0.1693 0.0829 0.0847 0.1656 0.0847 0.0828 0.0847 0.1656 0.0847 0.1657 0.0846 0.1656 0.0847 0.0828 0.0847 0.2484 0.0847 0.2485 0.0846 0.2484 0.0848 0.2484 0.0846 0.3313 0.0847 0.3312 0.0847 0.4969 0 1.6563 -0.0847 0.4968 -0.0847 0.2485 -0.0846 0.2484 0.254 0 0 -0.3313 0.0847 -0.3312 0.0846 -0.3312 0.0847 -0.0829 0.0847 -0.2484 0.0847 -0.1656 0.0847 -0.0828 0.0847 -0.0829 0.0846 -0.0827 0.4235 0 0.0846 0.0827 0.0847 0.1657 0.0847 0.5796 0 1.2423 -0.0847 2.5672 0 0.1656 0 1.2422 -0.0847 0.9109 -0.0846 0.4141 -0.0848 0.414 0 0.2485 0.0848 -0.0828 0.0846 -0.0828 0.0847 -0.1656 0.0847 -0.1657 0.0847 -0.1656 0.0846 -0.2484 0.0848 -0.1657 0.0846 -0.1656 0.0847 -0.2484 0.0847 -0.0829 0.0847 -0.1656 0.0846 -0.1656 0.0847 -0.1656 0.0847 -0.1656 0.0847 -0.0829 0.0846 -0.0828 0.0848 -0.1656 0.0846 -0.0828 0.0847 -0.0828 0.0847 -0.0828 0.0847 -0.0829 0.4234 0 0.0847 0.0829 0 1.1593 -0.0847 0.3313 -0.0847 0.3312 -0.0847 0.1656 -0.0846 0.3313 -0.0848 0.3313 -0.0846 0.2484 -0.0847 0.3313 -0.0847 0.2484 -0.0847 0.2484 -0.0846 0.0829 -0.0848 0.1656 -0.0846 0.1656 -0.0847 0.0828 -0.0847 0.1656 -0.0847 0.0828 -0.0846 0.0829 -0.0847 0.1656 -0.0847 0.1656 -0.0847 0.0828 -0.0846 0.1656 -0.0848 0.0829 -0.0846 0.0828 -0.0847 0.1656 -0.0847 0.1656 -0.0847 0.1657 -0.0846 0.2484 -0.0848 0.2484 -0.0846 0.0829 -0.0847 0.5796 0 0.0828 0.0847 0.4969 0.0846 0.0828 0.0848 0.1656 0.0846 0.1657 0.0847 0.0828 0.0847 0.1656 0.0847 0.1656 0.0846 0.0829 0.0848 0.0828 0.0846 0.1656 0.0847 0.1657 0.0847 0.1656 0.0847 0.1656 0.0846 0.0828 0.0847 0.1656 0.0847 0.1657 0.0847 0.2484 0.0846 0.1656 0.0848 0.2484 0.0846 0.1657 0.0847 0.0828 0.0847 0.0828 0.1693 0.0828 0 -0.1656 0.0848 -0.3313 0.0846 -0.2484 0.0847 -0.1656 0.0847 -0.1656 0.6034 -0.0008 -0.0953 -0.4961 -0.0847 -0.4141 -0.0847 -0.414 0 -0.5797 0.0847 -0.2485 0.0847 -0.1656 0.0847 -0.2485 0.0846 -0.1656 0.0847 -0.2484 0.0847 -0.4141 0 -2.8156 -0.0847 -0.3312 -0.0847 -0.1657 -0.0846 -0.2484 0 -0.7453 0.0846 -0.0829 0.0847 -0.0828 0.0847 -0.1656 0.0847 -0.0828 0.0846 -0.1656 0.0848 -0.0829 0.0846 -0.0828 0.0847 -0.1656 0 -0.4969 -0.0847 -0.0828 -0.0846 -0.2484 -0.0848 -0.2485 -0.0846 -0.2484 -0.0847 -0.2484 -0.0847 -0.2485 -0.0847 -0.2484 -0.0846 -0.1656 -0.0847 -0.3313 -0.0847 -0.2484 -0.0847 -0.2485 -0.0847 -0.2484 -0.0847 -0.2484 -0.0846 -0.2485 -0.0847 -0.3312 -0.0847 -0.3313 -0.0847 -0.3313 -0.0846 -0.4968 0 -1.0766 0.0846 -0.0828 0.0847 -0.0828 0.5081 0 0.1694 0.0828 0.1693 0.0828 0.0847 0.0828 0.0847 0.0829 0.0846 0.1656 0.0848 0.1656 0.0846 0.1656 0.0847 0.2485 0.0847 0.0827 0.5081 0 0.0847 -0.0827 0.1693 -0.0829 0.0847 -0.0828 0.0847 -0.0828 0.0847 -0.0828 0.1693 -0.0828 0.1694 -0.0828 0.254 -0.0828 0.5928 -0.0829 0.8468 -0.0827 0.2541 -0.0829 0.0847 -0.3312 0 -0.6625 -0.0847 -0.1656 -0.0847 -0.0829 -0.1694 -0.0828 -0.254 -0.0828 -0.2541 -0.0828 -0.254 -0.0828 -0.1694 -0.0828 -0.1693 -0.0828 -0.0847 -0.0829 -0.1694 -0.0827 -0.1693 -0.0829 -0.0847 -0.0828 -0.0847 -0.1656 -0.0847 -0.1657 0 -0.2484 0.0847 -0.0828 0.0847 -0.0828 0.254 -0.0828 0.8468 0 0.5928 0.0828 0.5081 0.0828 0.4234 0.0828 0.3387 0.0828 0.2541 0.0829 0.254 0.0827 0.3388 0.0829 0.0846 0 2.0324 -0.0829 0.5928 -0.0827 0.5927 -0.0829 0.6775 -0.0828 0.5928 -0.0828 0.508 -0.0828 0.5081 -0.0828 0.4234 -0.0828 0.2541 -0.0828 0.3387 -0.0829 0.4234 -0.0827 0.3388 -0.0829 0.254 -0.0828 0.3387 -0.0828 0.1694 -0.0828 0.3387 -0.0828 0.1694 -0.0829 0.254 -0.0827 0.254 -0.0829 0.1694 -0.0828 0.1694 -0.0828 0.1693 -0.0828 0.1694 -0.0828 0.1694 -0.0829 0.1693 -0.0827 0 -0.1657 -0.0846 -0.0828 -0.1694 -0.0828 -0.2541 -0.0828 -0.1693 -0.0829 -0.3388 -0.0827 -0.3387 -0.0829 -0.4234 -0.0828 -0.254 0 -0.0847 0.0828 -0.0847 0.0829 -0.0846 0.0827 -0.0848 0.1657 -0.0846 0.0828 -0.0847 0.0828 -0.0847 0.0828 -0.1693 0.0829 -0.1694 0.0827 -0.2541 0 -0.1693 -0.0827 -0.1694 -0.0829 -0.0847 -0.0828 -0.0847 -0.0828 -0.0846 -0.0828 -0.0847 -0.1657 -0.0847 -0.0827 -0.0847 -0.0829 -0.0847 -0.0828 -0.0846 -0.0828 -0.0847 -0.0828 -0.0847 -0.0828 -0.0847 -0.0828 -0.0847 -0.0828 -0.1693 -0.0829 -0.0847 -0.0827 -0.1694 -0.0829 -0.1693 -0.0828 -0.1694 -0.0828 -0.0847 0 -0.1693 0 0 0.1656 -0.0847 0.2485 0 0.2484 0.0847 0.1656zm-19.4768 -10.2687l0 0.2484 -0.0847 0.0828 -0.0847 0.1656 -0.0847 0.0829 -0.0846 0.0827 -0.0847 0.0829 -0.0847 0.1656 -0.0847 0.0828 -0.0847 0.1656 -0.0847 0.0828 -0.0846 0.0829 -0.0847 0.1656 -0.0847 0.0828 -0.0847 0.0828 -0.0846 0.1656 -0.0848 0.1656 -0.0846 0.0829 -0.0847 0.0828 -0.0847 0.2484 -0.0847 0.1656 -0.0846 0.1657 -0.0848 0.1656 -0.0846 0.2484 -0.0847 0.2485 -0.0847 0.414 0 0.2485 0.0847 0.0828 0.0847 0.0828 0.1694 0.0828 0.1693 0.0828 0.254 0.0828 0.2541 0.0828 0.254 0.0829 0.0847 0.0827 0.1694 0.0829 0.0847 0.1656 0.0847 0.0828 0.0846 0.1657 0.0847 0.2484 0.0847 0.5797 0.0847 0.9937 0.0847 0.6626 0.0847 0.1656 0.0846 0.0828 0.0847 0.1656 0.0847 0.1656 0.0847 0.2485 0.0846 0.0828 0.0847 0.0828 0.0847 0.1656 0.0847 0.0828 0.0847 0.0828 0 0.1657 0.1693 0 0 0.1656 0.1694 0 0.1694 0.0828 0.1693 0.0828 0.2541 0.0828 0.6774 0.0829 1.2703 0.0827 0.254 0.0829 0.7622 0.0828 0.254 0 0.9315 -0.0828 0.4234 -0.0829 0.3387 -0.0827 0.5081 -0.0829 0.4234 -0.0828 0.3388 -0.0828 0.254 -0.0828 0.254 -0.0828 0.3388 -0.0828 0.254 -0.0828 0.4234 -0.0829 0.3387 -0.0828 0.5081 -0.0828 0.2541 -0.0828 0.3387 -0.0828 3.0485 0 0.6775 0.0828 0.1694 0 5.3349 -0.0828 2.3711 0 0.254 0.0828 0.1694 0.0828 0.254 0.0828 0.2541 0.0828 0.1693 0.0829 0.1694 0.0828 0.1693 0.0828 0.0848 0.0828 0.1693 0.0828 0.0847 0.0828 0.2541 0.0828 0.0846 0.0829 0.2541 0.0827 0.0846 0.0829 0.1694 0.0828 0.1693 0.0828 0.2541 0.0828 0.1694 0.0828 0.0846 0.0828 0.0848 0.0828 0.0846 0.0829 0.1694 0.0827 0.0847 0.0829 0.0846 0.1656 0.0847 0.0828 0 0.2484 -0.0847 0.0829 -0.0846 0.0828 -0.0847 0.0828 -0.1694 0.0828 -0.254 0.0828 -0.0847 0.0829 -0.1694 0.0827 -0.0846 0.0829 -0.0848 0.0828 -0.1693 0.0828 -0.0847 0.0828 -0.1693 0.0828 -0.0847 0.0829 -0.254 0.0827 -0.2541 0.0829 -0.1694 0.0828 -0.254 0.0828 -0.1694 0.0828 -0.1693 0.0828 -0.2541 0.0828 -0.3387 0.0828 -0.254 0.0829 -0.2541 0.0827 -0.254 0.0829 -0.1694 0.0828 -0.3387 0.0828 -0.2541 0.0828 -0.3387 0.0828 -0.3387 0.0829 -0.3388 0.0827 -0.1693 0.0829 -0.3388 0.0828 -0.3387 0.0828 -0.3387 0.0828 -0.5081 0.0828 -0.4234 0.0828 -0.5081 0.0828 -0.5927 0.0829 -3.0602 0.0014 0.0963 0.3298 0.1693 0.0828 0.0847 0.0828 0.0847 0.0828 0.0847 0.0829 0.0846 0.2484 0 0.2484 -0.0846 0.1656 -0.0847 0.1657 -0.0847 0.0828 -0.1693 0.0828 -0.0847 0.0828 -0.0847 0.0828 -0.1694 0.0828 -0.1693 0.0829 -0.1694 0.0827 -0.2541 0.0829 -0.254 0.0828 -0.4234 0.0828 -0.5928 0.0828 -0.4234 0.0828 -0.1693 0.0829 -0.0847 0.0827 -0.1694 0.0829 -0.0847 0.0828 -0.0846 0.1656 -0.0847 0.2484 -0.0847 0.4141 0 0.9109 0.0847 0.8282 0 2.8984 -0.0847 0.5797 -0.0847 0.1656 -0.0847 0.1657 -0.0846 0.1656 -0.0847 0.0828 -0.0847 0.0829 -0.0847 0.1656 0 1.1593 0.0847 0.9938 0.0847 0.9109 0.0847 0.4969 0.0846 0.3313 0 1.9047 -0.0846 0.2484 -0.0847 0.3313 0 0.3312 0.0847 0.1656 0.0846 0.0828 0.0847 0.0828 0.0847 0.0829 0.0847 0.0828 0.0847 0.0828 0.0846 0.0828 0.0847 0.1656 0.0847 0.0828 0.0847 0.2485 0.0847 0.4969 0.0846 0.1656 0.0847 0.3312 0.0847 0.2485 0 1.2421 -0.0847 0.4141 -0.0847 0.3313 -0.0846 0.4969 -0.0847 0.3312 -0.0847 0.3313 -0.0847 0.0828 -0.0847 0.0828 -0.0846 0.1656 -0.0847 0.0828 -0.0847 0.0828 -0.0847 0.1657 -0.0847 0.0828 -0.0846 0.0828 -0.0847 0.1656 -0.0847 0.0828 -0.0847 0.1656 -0.0847 0.1657 -0.0847 0.0828 -0.0846 0.1656 -0.0847 0.1656 -0.0847 0.1656 -0.0847 0.1657 -0.0847 0.3313 0 0.3312 0.0847 0.5797 0.0847 0.4141 0.0847 0.3312 0.0847 0.2485 0.0846 0.2484 0.0847 0.3312 0.0847 0.3313 0.0847 0.4969 0.0847 0.2484 0.0847 0.2484 0.0846 0.0828 0.0847 0.1657 0.0847 0.2484 0.0847 0.1656 0.0847 0.3313 0.0846 0.2484 0.0847 0.1657 0.0847 0.3312 0.0847 0.3312 0 0.6626 -0.0847 0.2484 -0.0847 0.1656 -0.0847 0.0828 -0.0846 0.0829 -0.0847 0.0827 -0.2541 0.0829 -0.8468 0 -0.254 -0.0829 -0.5928 -0.0827 -0.5928 0 -0.7621 0.0827 -0.8468 0.0829 -0.4234 0 -0.4235 -0.0829 -0.254 -0.0827 -0.1693 -0.0829 -0.0847 -0.0828 -0.1694 -0.0828 -0.0847 -0.0828 -0.0847 -0.0828 -0.0846 -0.0829 -0.0847 -0.0827 -0.0847 -0.1657 -0.0847 -0.0828 -0.0846 -0.1656 -0.0848 -0.0828 -0.0846 -0.0828 0 -0.1656 -0.1694 0 -0.0847 -0.0829 -0.3387 -0.0828 -0.254 -0.0828 -0.5081 -0.0828 -0.4234 -0.0828 -0.6775 -0.0829 -0.1694 -0.0827 -0.0846 -0.0829 -0.1694 -0.0828 -0.0847 -0.0828 -0.0847 -0.1656 -0.1693 -0.0829 -0.1694 -0.0827 -0.5081 0 -0.1694 0.0827 -0.1693 0.0829 -0.1694 0.0828 -0.1693 0.0828 -0.0847 0.0828 -0.1694 0.0828 -0.0847 0.0829 -0.0846 0.1656 -0.0847 0.3312 0 0.1656 0.0847 0.7453 0 0.497 0 1.0765 0 1.325 -0.0847 0.911 -0.0847 0.5797 -0.0847 0.5797 -0.0847 0.4968 -0.0847 0.4141 -0.0846 0.2484 -0.0847 0.4141 -0.0847 0.3312 -0.0847 0.4141 -0.0846 0.3313 -0.0848 0.3312 -0.0846 0.2484 -0.0847 0.3313 -0.0847 0.3312 -0.0847 0.3313 -0.0846 0.2484 -0.0848 0.3313 -0.0846 0.2484 -0.0847 0.2484 -0.0847 0.3313 -0.0847 0.2484 -0.0846 0.4141 -0.0847 0.2485 -0.0847 0.2484 -0.0847 0.3313 -0.0846 0.414 -0.0848 0.3313 -0.0846 0.3312 -0.0847 0.2484 -0.0847 0.3313 -0.0847 0.1656 -0.0846 0.2484 -0.0848 0.3313 -0.0846 0.2484 -0.0847 0.2485 -0.0847 0.3312 -0.0847 0.1656 -0.0846 0.2485 -0.0847 0.3312 -0.0847 0.2485 -0.0847 0.3312 -0.0846 0.2485 -0.0848 0.2484 -0.0846 0.3313 -0.0847 0.4141 -0.0847 0.9937 -0.0847 0.2484 -0.0846 0.0828 -0.1694 0.0829 -0.4234 0 -0.0847 -0.0829 -0.1694 -0.0828 -0.0847 -0.0828 -0.0846 -0.0828 -0.0847 -0.1656 0 -0.8282 0.0847 -0.3312 0.0846 -0.1656 0.0847 -0.0828 0.0847 -0.0828 0.0847 -0.2485 0.1694 0 0 -0.1656 0.0846 -0.0828 0.0847 -0.1657 0.0847 -0.0827 0.0847 -0.1657 0.0846 -0.3313 0.0848 -1.9047 0.0846 -0.4968 0.0847 -0.7453 0.0847 -0.4141 0.0847 -0.4969 0.0846 -0.4968 0.0848 -0.4969 0.0846 -0.4969 0.0847 -0.6625 0 -0.9938 0 -1.0765 0.0847 -0.2485 0 -0.3312 -0.0847 -0.2485 -0.2541 -0.0828 -0.0846 -0.0828 -0.0847 -0.2484 -0.0847 -0.1657 0 -0.414 0.0847 -0.1657 0.0847 -0.1656 0.0846 -0.2484 0.0848 -0.3313 0.0846 -0.414 0.0847 -0.8281 0.0847 -2.4844 0.0847 -0.1657 0.0846 -0.0827 0.0847 -0.0829 0.254 -0.0828 0.0848 -0.0828 0.1693 0 0 -0.1656 0.0847 -0.1656 0.0847 -0.1657 0.0846 -0.1656 0.0848 -0.0828 0.0846 -0.0829 0.0847 -0.0827 0.9315 -0.0829 0.4234 -0.0828 0.0847 -0.1656 0 -0.0828 -0.0847 -0.1656 -0.0847 -0.1656 -0.0846 -0.1657 -0.0848 -0.0828 -0.0846 -0.0828 -0.0847 -0.0828 -0.1694 -0.0829 -0.4234 0 -0.254 0.0829 -0.1694 0.0828 -0.1694 0.0828 -0.1693 0.0828 -0.254 0.0828 -0.2541 0.0829 -0.1694 0.0827 -0.5081 0 -0.254 -0.0827 0 -0.1657 0.0847 -0.0828 0.0847 -0.0828 0.0846 -0.0828 0.3388 -0.0829 0.1693 -0.0827 0.0847 -0.0829 0.3388 -0.0828 0.254 -0.0828 0.2541 -0.0828 0.0846 -0.0828 0.0847 -0.0829 0 -0.6624 -0.0847 -0.1657 -0.0846 -0.1656 -0.0848 -0.0828 -0.0846 -0.0828 -0.0847 -0.0828 -0.0847 -0.0828 0 -0.1657 -0.9315 0 -0.254 -0.0828 -0.1694 -0.0828 -0.0847 -0.1656 0 -0.0828 0.0847 -0.2485 0.0847 -0.0828 0.0847 -0.1656 0.0846 -0.0828 0.0848 -0.0828 0.0846 -0.0828 0.0847 -0.0829 0.1694 0 0 -0.1656 0.0846 -0.0828 0.0847 -0.3313 -0.1693 0 -0.4235 0 -0.5927 0.0829 -0.4234 0.0828 -0.0847 0.0828 -0.0847 0.1656 0 0.3313 0.0847 0.3312 0.0847 0.3313 0 0.2484 -0.0847 0.0828 -0.0847 0.2485 0 0.414 0.0847 0.1656 0.0847 0.0829 0.0847 0.0828 0.0846 0.0828 0.0847 0.1656 0.0847 0.0828 0.0847 0.1657 0.0846 0.1656 0.0848 0.0828 0 0.3313 -0.0848 0.2484 -0.0846 0.1656 0 0.7453 0.0846 0.1657 0.0848 0.2484 0.0846 0.2484 0.0847 0.4141 0.0847 0.4141 0.0847 0.7453 0 0.9937 -0.0847 0.6625 -0.0847 0.3313 -0.0847 0.3312 -0.0846 0.2485 -0.0848 0.6625 -0.0846 0.3312 -0.0847 0.6625 -0.0847 0.911 -0.0847 0.1656 -0.0846 0.3313 -0.0847 0.6625 -0.0847 0.414 -0.0847 0.911 -0.0847 2.1531 -0.0847 1.0766 -0.0846 0.8281 -0.0847 0.7453 -0.0847 0.3312 -0.0847 0.5797 -0.0847 0.4969 -0.0847 0.4141 -0.0846 0.414 0 1.6563 0.0846 0.6625 0.0847 0.2484 0 0.1657 0.1694 0 0.0847 0.0828 0.0847 0.0828 0.1693 0.0828 0.1694 0.0828 0.1694 0.0828 0.1693 0.0829 0.1694 0.0827 0.0846 0.0829 0.0848 0.0828 0.0846 0.0828 0.0847 0.1656 0.0847 2.236 0.0847 0.3312 0.0846 0.2485 0.0848 0.2484 0.0846 0.3312 0.0847 0.3313 0.0847 0.4141 0.0847 0.4968 0.0846 0.6626 0 0.2484 -0.0846 0.3312 0 2.0704 0.0846 0.9937 0.0847 0.4141 0 0.9937 0 0.1657 0 2.4015 -0.0847 0.6626 -0.0846 0.2484 -0.0847 0.1656 -0.0847 0.2484 -0.0847 0.0829 -0.1694 0.0828 -0.0846 0.0828 -0.0847 0.0828 -0.1694 0.0828 -0.1694 0.0828 -0.1693 0.0828 -0.0847 0.0828 -0.0847 0.0828 -0.6774 0 -0.0847 -0.0828 -0.0847 -0.0828 -0.0847 -0.0828 -0.0847 -0.1656 -0.0846 -0.3313 -0.0847 -0.5797 -0.0847 -0.4968 -0.0847 -0.4969 -0.0847 -0.4969 -0.0846 -0.2485 -0.0847 -0.4968 -0.0847 -0.4141 -0.0847 -0.4968 -0.0847 -0.4141 -0.0846 -0.6625 -0.0847 -0.2485 -0.0847 -0.3312 -0.0847 -0.3312 0 -0.5797 0.0847 -0.0829 0.4234 0 0.0847 0.0829 0.1693 0.0828 0.1694 0.0828 0.0847 0.0828 0.6774 0 0.0847 -0.0828 0.0847 -0.0828 0.0847 -0.1657 0.0847 -0.1656 0 -0.2484 -0.0847 -0.2484 0 -0.1657 -0.1694 0 -0.0847 -0.0828 -0.0846 -0.0828 -0.0847 -0.1657 -0.0847 -0.0827 -0.0847 -0.0829 -0.0847 -0.1656 -0.0847 -0.0828 -0.0846 -2.2359 -0.0847 -0.5797 -0.0847 -0.4969 -0.0847 -0.2484 -0.0847 -0.3313 -0.0846 -0.0828 -0.0847 -0.2485 -0.0847 -1.1594 -0.0847 -0.6624 -0.0847 -0.2485 -0.0846 -0.1656 -0.0847 -0.0828 -0.5081 0 -0.1694 0.0828 -0.1693 0 -0.0847 -0.0828 0 -0.2484 0.0847 -0.2485 0.0846 -0.1656 0.0847 -0.1656 0.0847 -0.1657 0.0847 -0.2484 0.0847 -0.0828 0.0846 -0.1656 0.0847 -0.2485 0.0847 -0.7453 0.0847 -1.5735 0 -2.1531 0 -1.4906 0 -2.1532 0 -0.6624 0.0847 -2.8157 0 -1.4078 0 -1.5734 0.0847 -0.4141 0.0846 -1.5734 0.0847 -0.7453 0.0847 -0.5797 0.0847 -0.6626 0.0847 -0.8281 0.0846 -0.7453 0.0847 -2.5672 0.0847 -0.6625 0.0847 -0.3312 0.0847 -0.3313 0.0846 -0.4141 0 -1.4078 0 -2.0703 0.0847 -0.1656 0.0847 -0.4141 0.0847 -0.4969 0.0847 -0.4141 0.0847 -0.3312 0.0846 -0.1656 0.1694 -0.0829 0.1694 0 0.1693 0.0829 0.1694 0.0828 0.0847 0.0828 0.0846 0.0828 0.0848 0.0828 0.1693 0.0829 0.0847 0.0827 0.0847 0.0829 0.254 0 0.4234 -0.0829 0.0847 -0.0827 0.0847 -0.0829 0.0846 -0.0828 0.0848 -0.0828 0.0846 -0.0828 0.0847 -0.1657 0.0847 -0.0827 0.0847 -0.0829 0.0846 -0.0828 0.1694 -0.0828 0.1694 0 0.1693 0.0828 0.0847 0.0828 0.1694 0.0829 0.0846 0.414 0 0.4969 -0.0846 0.1656 -0.0847 0.0829 -0.0847 0.0827 -0.0847 0.0829 -0.1693 0.0828 -0.0847 0.0828 -0.2541 0.0828 -0.1693 0.0828 -0.0847 0.1656 -0.0847 0.0829 -0.0846 0.0828 -0.0848 0.1656 -0.0846 0.2484 0 0.7453 0.0846 0.1657 0.0848 0.0828 0.0846 0.0828 0.0847 0.0828 0.0847 0.0828 0.1693 0.0828 0.0848 0.0828 0.0846 0.0829 0.0847 0.0828 0.0847 0.0828 0.0847 0.0828 0 0.3313 -0.0847 0.0827 -0.0847 0.0829 -0.5081 0 -0.5201 -0.0806 0.0967 0.2462 0.0847 0.1656 0.0846 0.1656 0.0848 0.1657 0.0846 0.0828 0.0847 0.0828 0.0847 0.1656 0.0847 0.0828 0.0846 0.1656 0.0848 0.0829 0.3387 0.0828 0.4233 0 0.2541 -0.0828 0.254 -0.0829 0.1694 -0.0827 0.1694 -0.0829 0.0847 -0.0828 0.1693 -0.0828 0.0847 -0.0828 0.1694 -0.0828 0.0847 -0.0828 0.1693 -0.0828 0.1694 -0.0829 0.0847 -0.0827 0.1693 -0.0829 0.1694 -0.0828 0.254 -0.0828 0.1694 0 0.6775 0.0828 0.4234 0.0828 0.254 0.0829 0.0847 0.0827 0.1694 0.0829 0.0846 0.0828 0.0847 0.0828 0.0847 0.2484 0.0847 0.2484 0 0.4141 -0.0847 0.4141 -0.0847 0.3312 -0.0847 0.2485 -0.0846 0.2484 -0.0847 0.2485 -0.0847 0.1656 0 0.8281 0.0847 0.0828 0.0847 0.0828 0.0846 0.1657 0.1694 0.0828 0.0847 0.1656 0.1693 0.0828 0 0.1656 0.5081 0 0.5081 0 0.5928 -0.0828 0.3387 -0.0828 0 -0.1656 -0.0846 -0.0828 -0.1694 -0.0828 -0.0847 -0.1657 -0.0847 -0.1656 -0.0847 -0.0828 -0.0846 -0.1656 -0.0847 -0.0828 -0.0847 -0.4141 0 -0.9938 0.0847 -0.4968 0 -0.911 -0.0847 -0.5796 -0.0847 -0.0829 -0.0847 -0.0828 -0.0847 -0.0828 -0.1693 -0.0828 -0.2541 -0.0828 -0.4234 0 -1.6089 0 -0.4234 -0.0829 -0.0847 -0.0827 -0.1694 -0.0829 -0.0847 -0.0828 -0.0847 -0.0828 -0.0846 -0.0828 -0.0847 -0.0828 -0.0847 -0.1656 -0.0847 -0.0829 0 -0.5796 0.0847 -0.1657 0.0847 -0.0828 0.0847 -0.0828 0.0846 -0.0828 0.1694 -0.0828 0.0847 -0.0828 0.0847 -0.0828 0.0847 -0.1657 0.1693 -0.0828 0.0847 -0.0828 0.0847 -0.1656 0.0847 -0.0828 0.0847 -0.1657 0.0846 -0.0828 0.0847 -0.1656 0.0847 -0.1656 0.0847 -0.1657 0.0847 -0.414 0.0846 -0.5797 0.0847 -0.8281 0.0847 -0.1656 0.0847 -0.1657 0.0847 -0.0828 0.6774 0 0.3387 0.0828 0.2541 0.0828 0.254 0.0829 0.1694 0.0827 0.1694 0.0829 0.0847 0.0828 0.254 0.0828 0.1693 0.0828 0.2541 0.0828 0.254 0 0.1694 0 0 -0.2484 -0.1694 0 -0.0846 -1.325 -0.0847 -0.4969 -0.0847 -0.1656 -0.0847 -0.1657 -0.254 -0.0828 -0.3387 0 -0.5081 0 -0.3388 -0.0828 -0.0847 -0.0828 -0.0846 -0.0828 -0.1694 -0.0828 -0.0847 -0.0828 -0.0847 -0.0828 -0.0846 -0.1657 -0.0847 -0.1656 -0.0847 -0.1656 -0.0847 -0.1656 -0.0847 -0.2485 -0.0846 -0.3312 -0.0847 -0.3313 -0.0847 -0.1656 -0.0847 -0.3313 -0.0847 -0.2484 -0.0847 -0.3313 -0.0846 -0.1656 -0.0847 -0.1656 -0.0847 -0.0828 -0.0847 -0.0828 -0.0847 -0.0829 -0.0846 -0.1656 -0.0847 -0.0828 -0.0847 -0.1656 -0.0847 -0.0828 -0.0847 -0.1656 0 -0.1657 -0.1693 0 -0.0847 -0.1656 -0.0847 -0.0828 -0.0847 -0.1656 -0.0847 -0.0829 -0.0847 -0.0828 -0.0846 -0.0828 -0.0847 -0.0828 -0.0847 -0.0828 -0.0847 -0.0828 -0.0846 -0.0828 0 -0.1657 -0.1694 0 -0.0847 -0.1656 0 -0.1656 -0.1694 0 -0.0846 -0.1656 -0.0847 -0.0828 -0.0847 -0.0828 -0.0847 -0.0829 -0.0847 -0.0828 -0.0847 -0.1656 -0.0846 -0.0828 -0.0847 -0.0828 -0.0847 -0.0828 -0.0847 -0.0829 -0.0846 -0.0827 -0.0848 -0.0829 -0.0846 -0.1656 -0.0847 -0.0828 -0.0847 -0.0828 -0.0847 -0.0829 -0.0846 -0.0827 -0.0848 -0.0829 -0.0846 -0.0828 -0.0847 -0.0828 -0.0847 -0.0828 -0.0847 -0.0828 -0.0846 -0.0829 -0.0847 -0.0827 -0.0847 -0.0829 -0.0847 -0.0828 -0.0846 -0.0828 -0.1694 -0.0828 -0.0847 -0.0828 -0.0847 -0.0829 -0.1693 -0.0827 -0.0848 -0.0829 -0.0846 -0.0828 -0.1694 -0.0828 -0.1693 -0.0828 -0.1694 -0.0828 -0.0847 -0.1656 0 -0.1656 -0.1694 0 -0.0846 -0.0829 -0.2541 -0.0828 -0.0846 -0.0828 -0.0848 -0.0828 -0.0846 -0.0828 -0.0847 -0.1656 -0.1694 -0.0829 -0.0846 -0.0828 0 -0.1656 -0.1694 0 -0.0847 -0.1656 -0.0847 -0.0828 -0.0847 -0.0829 -0.0846 -0.0828 -0.0847 -0.0828 -0.0847 -0.0828 0 -0.1656 -0.1694 0 -0.0847 -0.0828 -0.0846 -0.0828 -0.0847 -0.0829 -0.0847 -0.1656 -0.0847 -0.0828 -0.1693 -0.0828 0 -0.1656 -0.1694 0 -0.0847 -0.1656 -0.0847 -0.0829 -0.0846 -0.0828 -0.1694 -0.0828 -0.0847 -0.0828 -0.0847 -0.1656 -0.0847 -0.0828 -0.1693 -0.0829 -0.0847 -0.1656 -0.0847 -0.0828 -0.0847 -0.414 0 -0.1657 0.1694 -0.0828 0.3387 0 0 -0.1656 -0.1693 0 -0.0847 -0.0829 -0.0847 -0.0827 -0.0847 -0.2485 -0.0847 -0.0828 -0.0846 -0.2484 -0.0847 -0.1657 -0.0847 -0.0828 -0.0847 -0.0828 -0.0847 -0.2484 -0.0847 -0.0829 -0.0846 -0.1656 -0.0847 -0.0828 0 -0.1656 -0.1694 0 0 -0.4969 0.0847 -0.1656 0.0847 -0.1656 0.0847 -0.0828 0.1693 0 0.1694 0.0828 0.0847 0.0828 0.0847 0.0828 0.0846 0.0828 0.0847 0.0828 0.0847 0.0828 0.0847 0.0828 0.0847 0.0829 0.0846 0.0828 0.0847 0.0828 0.0847 0.0828 0.0847 0.0828 0.0847 0.0828 0.0847 0.1657 0.0846 0.0827 0.1694 0.0829 0.3387 0.0828 0 -0.1657 0.0847 -0.2484 0.0847 -0.3312 0.0847 -0.1657 0.0846 -0.0828 0.0847 -0.0828 0.1694 0 0.1694 0.0828 0.0846 0.0828 0.0847 0.0829 0.0847 0.0828 0.0847 0.0828 0.0847 0.0828 0.0847 0.0828 0.0846 0.1656 0.0847 0.1656 0.0847 0.1657 0.0847 0.0828 0.0846 0.0828 0.0848 0.1656 0.0846 0.1657 0.0847 0.0827 0.0847 0.1657 0.0847 0.1656 0.0846 0.0828 0.0848 0.0829 0.0846 0.0827 0.0847 0.1657 0.0847 0.1656 0.0847 0.0828 0.0846 0.1656 0.0847 0.0829 0.0847 0.0828 0.0847 0.1656 0.0846 0.0828 0.0848 0.0829 0.0846 0.0827 0.0847 0.0829 0.0847 0.1656 0.0847 0.0828 0.0846 0.0828 0.0848 0.2485 0.0846 0.0827 0.0847 0.0829 0.0847 0.1656 0.0847 0.1656 0.0846 0.0828 0.0847 0.0828 0.0847 0.2485 0.0847 0.0828 0.0846 0.0828 0.0848 0.1656 0.0846 0.0828 0.0847 0.1657 0.0847 0.1656 0.0847 0.0828 0.0846 0.0828 0.0848 0.1657 0.0846 0.1656 0.0847 0.1656 0.0847 0.0828 0.0847 0.0828 0.0846 0.1656 0.1694 0.0829 0.2652 0.0817 -0.0958 -0.413 -0.0847 -0.0828 -0.0847 -0.2484 -0.0847 -0.0828 -0.0847 -0.1657 -0.0846 -0.1656 -0.0847 -0.1656 -0.0847 -0.1657 -0.0847 -0.0828 -0.0846 -0.1656 -0.0848 -0.1656 -0.0846 -0.1656 -0.0847 -0.0829 -0.0847 -0.1656 -0.0847 -0.0828 -0.0846 -0.0828 -0.0848 -0.1656 -0.0846 -0.1656 -0.0847 -0.0829 -0.0847 -0.1656 -0.0847 -0.0828 -0.0846 -0.0828 -0.0847 -0.1656 -0.0847 -0.1656 -0.0847 -0.0829 -0.0846 -0.1656 -0.0848 -0.0828 -0.0846 -0.0828 -0.0847 -0.1656 -0.0847 -0.1657 -0.0847 -0.0828 -0.0846 -0.0828 -0.0848 -0.1657 -0.0846 -0.0827 -0.0847 -0.1657 -0.0847 -0.0828 -0.0847 -0.1656 -0.0846 -0.0829 -0.0847 -0.2484 -0.0847 -0.0828 -0.0847 -0.0828 -0.0846 -0.2484 -0.0848 -0.1656 -0.0846 -0.0829 -0.0847 -0.1656 -0.0847 -0.0828 -0.0847 -0.1656 -0.0846 -0.0828 -0.0848 -0.1657 -0.0846 -0.1656 -0.0847 -0.0828 -0.0847 -0.0828 -0.0847 -0.0828 -0.0846 -0.0828 -0.0847 -0.0829 -0.0847 -0.0828 -0.1694 -0.0828 -0.1693 -0.0828 -0.0847 -0.0828 -0.1694 -0.0828 -0.254 -0.0828 -0.0847 -0.0829 -0.0847 -0.0827 -0.0847 -0.0829 -0.1693 -0.0828 -0.0847 -0.1656 -0.0847 -0.0828 -0.0847 -0.1656 -0.0847 -0.1657 -0.0846 -0.0828 -0.0847 -0.1656 -0.0847 -0.1656 -0.0847 -0.1656 -0.0847 -0.2485 -0.0847 -0.2485 -0.0846 -0.2484 -0.0847 -0.1656 -0.0847 -0.2484 0 -0.2485 0.0847 -0.0828 0.1693 -0.0828 0.1694 0 0.0847 0.0828 0.0847 0.0828 0.0847 0.1656 0.0846 0.0829 0.0847 0.0827 0.0847 0.1657 0.0847 0.1656 0.0847 0.0828 0.0846 0.1656 0.0847 0.1657 0.1694 0.0828 0.1693 0.0828 0.2634 0.0824 -0.094 -0.7449 -0.0847 -0.1656 -0.0847 -0.2485 0 -0.1656 0.0847 -0.0828 0.0847 -0.0828 0.1694 -0.0829 0.3387 -0.0827 0.1694 -0.0829 0.0847 -0.2484 0 -0.2484 -0.0847 -0.1656 -0.0847 -0.0829 -0.0847 -0.1656 -0.0847 -0.0828 -0.0847 -0.1656 -0.0846 -0.0828 -0.0847 -0.0829 -0.0847 -0.2484 -0.0847 -0.1656 -0.0847 -0.0828 -0.0847 -0.0828 -0.0846 -0.2485 -0.0847 -0.2484 0 -0.3313 0.0847 -0.0828 0.0846 -0.0828 0.3388 0 0 0.1656 0.1693 0 0.0847 0.0829 0.0847 0.1656 0.1694 0.0828 0.0847 0.0828 0.0846 0.0828 0.0847 0.0828 0.0847 0.0828 0.0847 0.0828 0.0846 0.0829 0.0848 0.0828 0.0846 0.0828 0.1694 0.0828 0.0847 0.0828 0.0846 0.0828 0.1694 0.0828 0.0847 0.0828 0.0847 0.0829 0.0847 0.0828 0.1693 0.0828 0.0847 0.0828 0.0847 0.0828 0.0846 0.0828 0.1694 0.0828 0.1694 0.0829 0.3494 0.082 -0.0953 -0.4961 -0.0848 -0.0828 -0.0846 -0.1657 -0.0847 -0.1656 -0.0847 -0.0828 -0.0847 -0.1656 -0.0846 -0.1656 0 -0.2485 0.0846 -0.0828 0.0847 -0.0828 0.0847 -0.0828 0.2541 0 0.3387 0.0828 0.254 0.0828 0.2541 0.0828 0.1693 0.0828 0.1694 0.0828 0.1694 0.0829 0.254 0 0.0847 -0.0829 0.0846 -0.1656 0.0847 -0.3312 0 -0.6626 -0.0847 -0.4968 -0.0846 -0.2485 -0.0847 -0.2484 -0.0847 -0.2484 -0.0847 -0.0829 -0.0846 -0.1656 -0.0848 -0.1656 -0.0846 -0.0828 -0.0847 -0.1657 -0.0847 -0.0827 -0.1693 -0.0829 -0.0848 -0.0828 -0.254 -0.0828 -0.0847 -0.0828 -0.0846 -0.1657 -0.4235 0 -0.4233 0.0829 -0.0848 0.0828 -0.254 0.0828 -0.254 0.0828 -0.1694 0.0828 -0.254 0.0829 -0.1694 0.0827 -0.0847 0.0829 -0.1694 0.0828 -0.1693 0.0828 -0.3387 0 0 -0.3312 0.0847 -0.0829 0.0846 -0.0828 0.1694 -0.0828 0.0847 -0.0828 0.0846 -0.0828 0.1694 -0.0829 0.0847 -0.0827 0.1694 -0.0829 0.1694 -0.0828 0.0846 -0.0828 0.1694 -0.0828 0.1693 -0.0828 0.0847 -0.0828 0.0847 -0.0828 0.0847 -0.0829 0.0846 -0.0827 0.0848 -0.0829 0.0846 -0.0828 0.0847 -0.1656 0.0847 -0.1656 0.0847 -0.1657 0.0846 -0.3312 0.0848 -0.1656 0.0846 -0.2485 0.0847 -0.2484 0.0847 -0.1656 0.0847 -0.1656 0.0846 -0.1657 0.0847 -0.0828 0.0847 -0.1656 0.0847 -0.1656 0.0846 -0.1657 0.0848 -0.0828 0.0846 -0.1656 0.0847 -0.0828 0.0847 -0.0828 0.0847 -0.0829 0.0846 -0.1656 0.0848 -0.0828 0.0846 -0.0828 0.0847 -0.0828 0.0847 -0.0828 0.0847 -0.0829 0.0846 -0.0827 0.1694 -0.0829 0.5081 0 0.0847 0.0829z"/>
  </g>
 </g>
</svg>
