<?xml version="1.0" encoding="UTF-8"?>
<!DOCTYPE svg PUBLIC "-//W3C//DTD SVG 1.1//EN" "http://www.w3.org/Graphics/SVG/1.1/DTD/svg11.dtd">
<!-- Creator: CorelDRAW -->
<svg xmlns="http://www.w3.org/2000/svg" xml:space="preserve" width="259.908mm" height="90.9799mm" style="shape-rendering:geometricPrecision; text-rendering:geometricPrecision; image-rendering:optimizeQuality; fill-rule:evenodd; clip-rule:evenodd"
viewBox="0 0 193.613 67.7734"
 xmlns:xlink="http://www.w3.org/1999/xlink">
 <defs>
  <style type="text/css">
   <![CDATA[
    .fil0 {fill:white}
    .fil4 {fill:#475A87;fill-rule:nonzero}
    .fil3 {fill:#B2C2DF;fill-rule:nonzero}
    .fil5 {fill:#9EB4DA;fill-opacity:0.501961}
    .fil1 {fill:url(#id0)}
    .fil2 {fill:url(#id1)}
   ]]>
  </style>
  <linearGradient id="id0" gradientUnits="userSpaceOnUse" x1="5.92284" y1="-1.07098" x2="187.691" y2="47.6335">
   <stop offset="0" style="stop-color:#4968A6"/>
   <stop offset="0.560784" style="stop-color:#4968A6"/>
   <stop offset="1" style="stop-color:#21335C"/>
  </linearGradient>
  <linearGradient id="id1" gradientUnits="userSpaceOnUse" x1="4.44468" y1="53.4033" x2="189.169" y2="53.4033">
   <stop offset="0" style="stop-color:#22315E"/>
   <stop offset="0.419608" style="stop-color:#405381"/>
   <stop offset="1" style="stop-color:#475A87"/>
  </linearGradient>
 </defs>
 <g id="Warstwa_x0020_1">
  <metadata id="CorelCorpID_0Corel-Layer"/>
  <g id="_177926800">
   <path id="_177568816" class="fil0" d="M186.166 0l-178.719 0c-5.20607,0 -7.44674,3.30346 -7.44674,8.5131l0 51.4145c0,5.20935 2.24313,7.8458 7.44674,7.8458l186.166 0 -0.000297971 -59.2603c0,-5.20935 -2.24059,-8.5131 -7.44667,-8.5131z"/>
   <path id="_157589488" class="fil1" d="M182.879 4.44483l-172.144 0c-4.67665,0 -6.28994,1.56986 -6.28994,6.24949l0 31.4233 184.724 0 0 -31.4233c0,-4.67948 -1.61336,-6.24949 -6.28994,-6.24949z"/>
   <path id="_177603920" class="fil2" d="M82.6999 51.5081l0 11.8203 -71.9654 0c-4.67427,0 -6.28987,-1.56979 -6.28987,-6.24964l0 -13.6004 184.724 0 0 4.78072 -103.685 0c-1.42244,0 -2.78387,1.82582 -2.78387,3.24908z"/>
   <path id="_177906424" class="fil0" d="M132.976 15.8323l0 14.8031 -2.75251 0 0 -14.8031 2.75251 0zm-4.90751 -2.141l0 19.0851 -1.37625 0 0 -19.0851 1.37625 0zm8.43854 0l0 19.0851 -1.37625 0 0 -19.0851 1.37625 0zm1.29074 -2.14122l5.48572 0 0 23.3676 -5.48572 0 0 -23.3676zm-17.8819 0l5.48565 0 0 23.3676 -5.48565 0 0 -23.3676zm-28.0166 6.9028l-4.27 0 0 16.4633 4.27 0 0 -16.4633zm-20.1865 6.78741l0 -6.78741 -4.26992 0 0 16.4633 4.26992 0 0 -7.13328 5.55343 7.13328 5.55366 0 -7.13335 -8.66358 6.51633 -7.79969 -5.28206 0 -5.20801 6.78741zm26.4209 9.67586l6.31818 0c4.34442,0 8.09617,-3.80114 8.09617,-8.24396 0,-4.41816 -3.75175,-8.21931 -8.09617,-8.21931l-6.31818 0 0 16.4633zm4.26992 -3.62839l0 -9.20678 0.987252 0c1.60428,0 2.64084,0.419618 3.50473,1.38229 0.765189,0.839459 1.18481,1.99924 1.18481,3.20892 0,1.23382 -0.419618,2.39412 -1.18481,3.23306 -0.863892,0.962893 -1.90046,1.38251 -3.50473,1.38251l-0.987252 0zm-86.6911 3.62862l6.86197 0c3.50518,0 5.67732,-1.77702 5.67732,-4.66518 0,-1.25893 -0.395035,-2.39435 -1.06152,-3.08564 -0.542978,-0.542754 -1.11061,-0.789549 -2.29549,-1.01176 1.28344,-0.765264 1.8019,-1.75252 1.8019,-3.4064 0,-2.78908 -1.62931,-4.2948 -4.64067,-4.2948l-6.3435 0 0 16.4638zm4.27022 -9.97234l0 -3.23328 0.789847 0c1.30832,0 1.99931,0.567635 1.99931,1.62908 0,1.03664 -0.690995,1.6042 -1.99931,1.6042l-0.789847 0zm0 6.64021l0 -3.45602 0.863818 0c1.40687,0 1.7771,0.0496867 2.27091,0.296183 0.493663,0.247092 0.814727,0.814727 0.814727,1.43168 0,1.20976 -0.888698,1.72816 -3.01159,1.72816l-0.937864 0zm23.2224 -9.50304l0 -3.62832 -9.35457 0 0 16.4633 9.35457 0 0 -3.62839 -5.08465 0 0 -2.83847 4.8132 0 0 -3.62839 -4.8132 0 0 -2.73969 5.08465 0zm17.593 -2.69031c-1.65389,-0.863818 -3.48038,-1.33282 -5.20823,-1.33282 -3.33213,0 -5.60282,2.24611 -5.60282,5.55366 0,1.43168 0.419618,2.49312 1.23405,3.2087 0.617247,0.518469 1.33282,0.839235 3.209,1.38229 1.99924,0.592217 2.56687,1.01206 2.56687,1.90068 0,0.96267 -0.814653,1.60428 -2.07358,1.60428 -1.25855,0 -2.44344,-0.518469 -3.77633,-1.67825l-1.82641 3.45527c1.72764,1.20969 3.72687,1.85532 5.72618,1.85532 1.55511,0 3.01159,-0.394514 4.0974,-1.09005 1.57969,-1.01183 2.3203,-2.51748 2.3203,-4.78862 0,-2.36954 -1.18481,-3.72695 -4.04823,-4.56618 -1.45596,-0.4442 -1.62901,-0.493589 -1.851,-0.592441 -0.740681,-0.345348 -1.11091,-0.765264 -1.11091,-1.28344 0,-0.789847 0.814653,-1.40709 1.82671,-1.40709 0.987252,0 1.85129,0.34587 2.81396,1.11084l1.70305 -3.33213z"/>
   <path id="_177924640" class="fil3" d="M151.174 39.0871l0 -4.9788c0.734498,0.752898 1.52397,1.08648 2.58892,1.08648 2.36842,0 4.18627,-1.93093 4.18627,-4.40982 0,-2.51525 -1.83602,-4.46152 -4.20467,-4.46152 -1.12,0 -1.92787,0.3671 -2.57052,1.19337l0 -0.918123 -2.93784 0c0,5.13821 0,4.24095 0,12.4884l2.93784 0zm1.79952 -10.23c1.06465,0 1.9094,0.844971 1.9094,1.92787 0,1.00967 -0.862849,1.87282 -1.8913,1.87282 -1.04655,0 -1.90947,-0.84445 -1.90947,-1.9094 0,-1.04655 0.844748,-1.8913 1.89137,-1.8913zm9.58431 -7.39936l-2.93784 0 0 13.4585 2.93784 0 0 -13.4585zm5.38054 5.14097l-2.93792 0 0 5.28809c0,2.20312 1.54237,3.38145 4.44342,3.38145 2.88257,0 4.42494,-1.17833 4.42494,-3.38145l0 -5.28809 -2.93762 0 0 4.71889c0,1.00967 -0.495749,1.5239 -1.48732,1.5239 -1.00975,0 -1.5055,-0.514223 -1.5055,-1.5239l0 -4.71889zm14.45 0.238675c-0.918123,-0.3855 -1.67102,-0.532325 -2.68077,-0.532325 -2.2952,0 -3.70884,1.1568 -3.70884,3.01122 0,1.3034 0.661049,1.94605 2.44202,2.31345 1.02815,0.220201 1.24842,0.348924 1.24842,0.771 0,0.367398 -0.3855,0.642649 -0.918123,0.642649 -0.679225,0 -1.57895,-0.330524 -2.34995,-0.84445l-1.06502 2.0747c1.08312,0.642574 2.16655,0.957753 3.32342,0.957753 2.40522,0 3.9657,-1.2333 3.9657,-3.1243 0,-1.34027 -0.771074,-2.12997 -2.4237,-2.4605 -0.642574,-0.1469 -0.716024,-0.165001 -0.825976,-0.201875 -0.330524,-0.110249 -0.495824,-0.275549 -0.495824,-0.514223 0,-0.330524 0.3671,-0.587301 0.899723,-0.587301 0.513925,0 1.04662,0.128425 1.59735,0.4039l0.991573 -1.9097z"/>
   <path id="_177968120" class="fil4" d="M91.3846 57.3911c0.477349,0 0.83335,-0.0972875 1.06368,-0.286946 0.231821,-0.190701 0.348626,-0.479733 0.348626,-0.873055 0,-0.371197 -0.12187,-0.655387 -0.36345,-0.856071 -0.240314,-0.199566 -0.587077,-0.30177 -1.03649,-0.30177l-1.21706 0 0 2.31784 1.2047 0zm-3.7551 5.93707l0 -10.1399 3.74013 0c1.3729,0 2.38742,0.250221 3.04765,0.747013 0.660155,0.497239 0.989562,1.2593 0.989562,2.28343 0,1.05124 -0.353915,1.84049 -1.05877,2.36231 -0.705074,0.521747 -1.76682,0.781876 -3.18121,0.781876l-0.986954 0 0 3.96525 -2.55041 0zm11.5327 -3.71071l2.99081 0 -1.41983 -3.85641 -1.57098 3.85641zm-4.24728 3.71071l4.4204 -10.1399 2.92667 0 3.9502 10.1399 -2.68867 0 -0.72474 -1.97167 -4.36863 0 -0.811375 1.97167 -2.70386 0zm16.3859 -5.97909c0.470049,0 0.81942,-0.0995223 1.04886,-0.294246 0.22914,-0.19465 0.343784,-0.492323 0.343784,-0.893317 0,-0.383042 -0.119337,-0.673563 -0.358459,-0.872906 -0.239345,-0.19979 -0.585364,-0.301845 -1.03418,-0.301845l-1.21706 0 0 2.36231 1.21706 0zm-3.76024 5.97909l0 -10.1399 3.74542 0c1.37797,0 2.39554,0.240239 3.05256,0.71744 0.655462,0.476009 0.984645,1.21952 0.984645,2.22629 0,0.559143 -0.14608,1.0391 -0.435485,1.43726 -0.289404,0.398238 -0.73204,0.73718 -1.3332,1.01176 0.252307,0.0914771 0.477871,0.245305 0.677809,0.460067 0.19979,0.21439 0.374401,0.489492 0.526738,0.81644l1.61523 3.47062 -2.86179 0 -1.2891 -2.92146c-0.204408,-0.463792 -0.446733,-0.780982 -0.712374,-0.954848 -0.265343,-0.173717 -0.643096,-0.262214 -1.13058,-0.262214 -0.0371719,0 -0.0900617,0.00320319 -0.150624,0.00752377 -0.0637658,0.0040971 -0.11159,0.00730029 -0.14608,0.00730029l0 4.12369 -2.54318 0zm12.4694 0l0 -8.25491 -3.35456 0 0 -1.88496 9.38311 0 0 1.88496 -3.35471 0 0 8.25491 -2.67384 0zm10.0438 -6.36973l0 6.36973 -2.50825 0 0 -10.1399 2.22391 0 5.43454 6.04583 0 -6.04583 2.50862 0 0 10.1399 -1.98642 0 -5.6724 -6.36973zm9.71482 6.36973l0 -10.1399 6.77541 0 0 1.87036 -4.23975 0 0 2.06539 4.05188 0 0 1.88496 -4.05188 0 0 2.41952 4.36356 0 0 1.89964 -6.89922 0zm12.2275 -5.97909c0.469975,0 0.818824,-0.0990009 1.04878,-0.294246 0.22981,-0.195245 0.343784,-0.492323 0.343784,-0.893317 0,-0.383042 -0.11889,-0.672967 -0.358608,-0.872906 -0.239867,-0.200311 -0.584247,-0.301845 -1.03396,-0.301845l-1.21714 0 0 2.36231 1.21714 0zm-3.76039 5.97909l0 -10.1399 3.74535 0c1.37804,0 2.39531,0.239718 3.05271,0.71744 0.655909,0.47653 0.984496,1.21952 0.984496,2.22629 0,0.559143 -0.145931,1.0391 -0.435336,1.43726 -0.289404,0.398238 -0.732189,0.73718 -1.33335,1.01176 0.252307,0.0914771 0.477349,0.244932 0.677884,0.460067 0.200311,0.215135 0.374177,0.488598 0.526813,0.81644l1.6153 3.47062 -2.86201 0 -1.2891 -2.92146c-0.204259,-0.464015 -0.446212,-0.78046 -0.712151,-0.954848 -0.265939,-0.17409 -0.643319,-0.262214 -1.13058,-0.262214 -0.0371719,0 -0.0894658,0.00245826 -0.150848,0.00752377 -0.0641382,0.00446956 -0.111367,0.00730029 -0.145931,0.00730029l0 4.12369 -2.54326 0zm11.3839 0l4.27447 -5.25412 -4.02216 -4.88576 3.18866 0 2.42176 2.97077 2.4342 -2.97077 3.1763 0 -4.05188 4.85596 4.42047 5.28392 -3.26055 0 -2.71854 -3.31232 -2.70364 3.31232 -3.15909 0zm12.8565 0l4.27469 -5.25412 -4.02246 -4.88576 3.18874 0 2.42161 2.97077 2.43435 -2.97077 3.17607 0 -4.05181 4.85596 4.42055 5.28392 -3.26032 0 -2.71884 -3.31232 -2.70371 3.31232 -3.15886 0zm14.0756 0l0 -10.1399 2.61715 0 0 10.1399 -2.61715 0z"/>
   <polygon id="_177926824" class="fil5" points="4.44476,42.1177 189.169,42.1177 189.169,43.4784 4.44476,43.4784 "/>
  </g>
 </g>
</svg>
