<?xml version="1.0" encoding="iso-8859-1"?>
<!-- Generator: Adobe Illustrator 16.0.0, SVG Export Plug-In . SVG Version: 6.00 Build 0)  -->
<!DOCTYPE svg PUBLIC "-//W3C//DTD SVG 1.1//EN" "http://www.w3.org/Graphics/SVG/1.1/DTD/svg11.dtd">
<svg version="1.1" id="Layer_1" xmlns="http://www.w3.org/2000/svg" xmlns:xlink="http://www.w3.org/1999/xlink" x="0px" y="0px"
	 width="276.529px" height="46.911px" viewBox="0 0 276.529 46.911" style="enable-background:new 0 0 276.529 46.911;"
	 xml:space="preserve">
<g>
	<path style="fill:#231F20;" d="M191.829,3.967v25.396c0,1.834-1.49,3.325-3.33,3.325s-3.326-1.491-3.326-3.325V3.967h-11.622
		v25.214c0,8.257,6.695,14.948,14.948,14.948c8.26,0,14.945-6.691,14.945-14.948V3.967H191.829z"/>
	<polygon style="fill:#231F20;" points="276.28,43.597 258.336,2.783 240.396,43.597 253.073,43.597 258.336,29.491 263.603,43.597 
			"/>
	<path style="fill:#231F20;" d="M223.876,15.181c2.368,0,4.29,1.915,4.29,4.284c0,2.366-1.922,4.286-4.29,4.286h-2.156v-8.57
		H223.876z M243.997,43.597l-11.411-13.08c4.177-2.446,6.963-6.963,6.963-12.19c0-7.872-6.865-14.359-14.737-14.359h-14.718v39.63
		h11.626v-9.55l6.606,9.55H243.997z"/>
	<path style="fill:#231F20;" d="M154.44,23.748h-2.384v-8.567h2.384c2.371,0,4.287,1.919,4.287,4.287
		C158.728,21.832,156.812,23.748,154.44,23.748 M154.103,3.967h-13.674v39.63h11.628v-8.63h2.046
		c8.558,0,15.503-6.938,15.503-15.499C169.605,10.906,162.66,3.967,154.103,3.967"/>
	<path style="fill:#231F20;" d="M116.864,15.181c2.371,0,4.287,1.915,4.287,4.284c0,2.366-1.916,4.286-4.287,4.286h-2.155v-8.57
		H116.864z M136.989,43.597l-11.415-13.08c4.18-2.446,6.967-6.963,6.967-12.19c0-7.872-6.865-14.359-14.739-14.359h-14.718v39.63
		h11.625v-9.55l6.604,9.55H136.989z"/>
	<path style="fill:#231F20;" d="M84.488,3.967v25.396c0,1.834-1.489,3.325-3.327,3.325c-1.839,0-3.331-1.491-3.331-3.325V3.967
		H66.214v25.214c0,8.257,6.689,14.948,14.945,14.948c8.255,0,14.949-6.691,14.949-14.948V3.967H84.488z"/>
	<path style="fill:#231F20;" d="M46.202,23.748h-2.389v-8.567h2.389c2.362,0,4.284,1.919,4.284,4.287
		C50.486,21.832,48.564,23.748,46.202,23.748 M45.862,3.967H32.19v39.63h11.623v-8.63h2.049c8.561,0,15.505-6.938,15.505-15.499
		C61.367,10.906,54.422,3.967,45.862,3.967"/>
	<polygon style="fill:#231F20;" points="0.249,35.104 11.9,46.744 23.537,35.104 11.9,23.454 	"/>
	<polygon style="fill:#231F20;" points="11.9,0.167 0.249,11.816 11.9,23.455 23.537,11.816 	"/>
</g>
<g>
</g>
</svg>
